<?xml version="1.0"?>
<!-- Generated by SVGo and Plotinum VG -->
<svg width="12in" height="8in"
	xmlns="http://www.w3.org/2000/svg"
	xmlns:xlink="http://www.w3.org/1999/xlink">
<g transform="scale(1, -1) translate(0, -720)">
<path d="M0,0L1080,0L1080,720L0,720Z" style="fill:#FFFFFF" />
<text x="253.18" y="-705.6" transform="scale(1, -1)"
	style="font-family:Helvetica;font-weight:normal;font-style:normal;font-size:12pt">Write 2M keys, 1000-client (etcd v3 100-conn), 8-byte key, 256-byte value, Throughput</text>
<text x="552.11" y="-4.8486" transform="scale(1, -1)"
	style="font-family:Helvetica;font-weight:normal;font-style:normal;font-size:12pt">Second</text>
<text x="71.609" y="-19.498" transform="scale(1, -1)"
	style="font-family:Helvetica;font-weight:normal;font-style:normal;font-size:10pt">0</text>
<text x="363.7" y="-19.498" transform="scale(1, -1)"
	style="font-family:Helvetica;font-weight:normal;font-style:normal;font-size:10pt">40</text>
<text x="659.26" y="-19.498" transform="scale(1, -1)"
	style="font-family:Helvetica;font-weight:normal;font-style:normal;font-size:10pt">80</text>
<text x="951.35" y="-19.498" transform="scale(1, -1)"
	style="font-family:Helvetica;font-weight:normal;font-style:normal;font-size:10pt">120</text>
<path d="M75.085,31.498L75.085,41.498" style="fill:none;stroke:#000000;stroke-width:0.625" />
<path d="M370.65,31.498L370.65,41.498" style="fill:none;stroke:#000000;stroke-width:0.625" />
<path d="M666.21,31.498L666.21,41.498" style="fill:none;stroke:#000000;stroke-width:0.625" />
<path d="M961.77,31.498L961.77,41.498" style="fill:none;stroke:#000000;stroke-width:0.625" />
<path d="M222.87,36.498L222.87,41.498" style="fill:none;stroke:#000000;stroke-width:0.625" />
<path d="M518.43,36.498L518.43,41.498" style="fill:none;stroke:#000000;stroke-width:0.625" />
<path d="M813.99,36.498L813.99,41.498" style="fill:none;stroke:#000000;stroke-width:0.625" />
<path d="M75.085,41.498L1080,41.498" style="fill:none;stroke:#000000;stroke-width:0.625" />
<g transform="rotate(90)">
<text x="336.05" y="14.399" transform="scale(1, -1)"
	style="font-family:Helvetica;font-weight:normal;font-style:normal;font-size:12pt">Throughput</text>
</g>
<text x="47.404" y="-42.186" transform="scale(1, -1)"
	style="font-family:Helvetica;font-weight:normal;font-style:normal;font-size:10pt">0</text>
<text x="19.248" y="-185.29" transform="scale(1, -1)"
	style="font-family:Helvetica;font-weight:normal;font-style:normal;font-size:10pt">1e+04</text>
<text x="19.248" y="-328.4" transform="scale(1, -1)"
	style="font-family:Helvetica;font-weight:normal;font-style:normal;font-size:10pt">2e+04</text>
<text x="19.248" y="-471.5" transform="scale(1, -1)"
	style="font-family:Helvetica;font-weight:normal;font-style:normal;font-size:10pt">3e+04</text>
<text x="19.248" y="-614.61" transform="scale(1, -1)"
	style="font-family:Helvetica;font-weight:normal;font-style:normal;font-size:10pt">4e+04</text>
<path d="M57.828,48.06L67.828,48.06" style="fill:none;stroke:#000000;stroke-width:0.625" />
<path d="M57.828,191.17L67.828,191.17" style="fill:none;stroke:#000000;stroke-width:0.625" />
<path d="M57.828,334.27L67.828,334.27" style="fill:none;stroke:#000000;stroke-width:0.625" />
<path d="M57.828,477.38L67.828,477.38" style="fill:none;stroke:#000000;stroke-width:0.625" />
<path d="M57.828,620.48L67.828,620.48" style="fill:none;stroke:#000000;stroke-width:0.625" />
<path d="M62.828,119.61L67.828,119.61" style="fill:none;stroke:#000000;stroke-width:0.625" />
<path d="M62.828,262.72L67.828,262.72" style="fill:none;stroke:#000000;stroke-width:0.625" />
<path d="M62.828,405.83L67.828,405.83" style="fill:none;stroke:#000000;stroke-width:0.625" />
<path d="M62.828,548.93L67.828,548.93" style="fill:none;stroke:#000000;stroke-width:0.625" />
<path d="M62.828,692.04L67.828,692.04" style="fill:none;stroke:#000000;stroke-width:0.625" />
<path d="M67.828,48.06L67.828,700.75" style="fill:none;stroke:#000000;stroke-width:0.625" />
<path d="M75.085,267.34L82.475,374.36L89.864,326.7L97.253,596.83L104.64,582.49L112.03,621.89L119.42,585.71L126.81,603.02L134.2,629.43L141.59,653.9L148.98,439.04L156.37,436.25L163.75,283.96L171.14,640.5L178.53,609.78L185.92,638.37L193.31,265.5L200.7,445.37L208.09,688.8L215.48,460.11L222.87,119.66L230.26,650.28L237.65,640.65L245.03,620.74L252.42,570.02L259.81,654.87L267.2,545.8L274.59,700.75L281.98,601.34L289.37,48.06L296.76,360.49L304.15,48.06L311.54,247.69L318.93,648.5L326.31,576.44L333.7,597.77L341.09,421.38L348.48,607.43L355.87,151.74L363.26,76.71L370.65,76.753L378.04,62.385L385.43,48.06L392.82,62.371L400.2,48.118L407.59,48.06L414.98,48.06L422.37,48.06L429.76,48.06L437.15,48.06L444.54,48.06L451.93,48.06L459.32,48.06L466.71,48.06L474.1,48.06L481.48,48.06L488.87,48.06L496.26,48.06L503.65,48.06L511.04,48.06L518.43,57.677L525.82,640.93L533.21,623.69L540.6,585.84L547.99,597.47L555.38,582.03L562.76,633.88L570.15,674.96L577.54,64.704L584.93,109.11L592.32,48.06L599.71,48.06L607.1,48.06L614.49,48.06L621.88,48.06L629.27,48.06L636.66,48.06L644.04,48.06L651.43,97.003L658.82,460.21L666.21,48.06L673.6,362.94L680.99,469.81L688.38,554.48L695.77,574.35L703.16,628.61L710.55,96.23L717.94,48.06L725.32,431.2L732.71,576.54L740.1,627.54L747.49,659.17L754.88,550.09L762.27,357.47L769.66,231.36L777.05,76.71L784.44,48.06L791.83,62.371L799.22,48.06L806.6,48.146L813.99,48.06L821.38,48.06L828.77,48.06L836.16,48.06L843.55,48.06L850.94,48.06L858.33,48.06L865.72,48.06L873.11,48.06L880.49,48.06L887.88,48.06L895.27,48.06L902.66,48.06L910.05,48.06L917.44,48.06L924.83,48.06L932.22,48.06L939.61,48.06L947,48.06L954.39,48.06L961.77,48.06L969.16,48.06L976.55,48.06L983.94,48.06L991.33,48.06L998.72,48.06L1006.1,48.06L1013.5,48.06L1020.9,48.06L1028.3,48.06L1035.7,48.06L1043.1,48.06L1050.4,48.06L1057.8,48.06L1065.2,320.76L1072.6,457.34L1080,300.37" style="fill:none;stroke:#F15A60;stroke-width:1.875" />
<path d="M75.085,355.44L82.475,645.74L89.864,555.77L97.253,606.06L104.64,579.56L112.03,594.85L119.42,585.38L126.81,580.73L134.2,576.49L141.59,569.57L148.98,573.19L156.37,575.99L163.75,570.3L171.14,586.64L178.53,562.63L185.92,576.99L193.31,557.06L200.7,587.51L208.09,586.68L215.48,564.33L222.87,584.01L230.26,575.33L237.65,550.45L245.03,551.94L252.42,574.52L259.81,554.97L267.2,539.11L274.59,556.73L281.98,527.35L289.37,500.72L296.76,572.84L304.15,550.2L311.54,490.79L318.93,602.08L326.31,571.76L333.7,546.51L341.09,522.59L348.48,546.56L355.87,569.78L363.26,557.93L370.65,551.86L378.04,579.94L385.43,576.85L392.82,554.98L400.2,536.97L407.59,551.71L414.98,562.07L422.37,578.48L429.76,534.66L437.15,532.73L444.54,554.05L451.93,529.64L459.32,522.41L466.71,622.92L474.1,540.47L481.48,509.83" style="fill:none;stroke:#7AC36A;stroke-width:1.875;stroke-dasharray:7.5,2.5" />
<path d="M1055,693.4L1080,693.4" style="fill:none;stroke:#F15A60;stroke-width:1.875" />
<text x="795.68" y="-686.35" transform="scale(1, -1)"
	style="font-family:Helvetica;font-weight:normal;font-style:normal;font-size:12pt">Zookeeper v3.4.8 (Java 8, Snap 100k)</text>
<path d="M1055,678.7L1080,678.7" style="fill:none;stroke:#7AC36A;stroke-width:1.875;stroke-dasharray:7.5,2.5" />
<text x="944.13" y="-671.65" transform="scale(1, -1)"
	style="font-family:Helvetica;font-weight:normal;font-style:normal;font-size:12pt">etcd v3 (Go Tip)</text>
</g>
</svg>
