<?xml version="1.0"?>
<!-- Generated by SVGo and Plotinum VG -->
<svg width="12in" height="8in"
	xmlns="http://www.w3.org/2000/svg"
	xmlns:xlink="http://www.w3.org/1999/xlink">
<g transform="scale(1, -1) translate(0, -720)">
<path d="M0,0L1080,0L1080,720L0,720Z" style="fill:#FFFFFF" />
<text x="248.08" y="-705.6" transform="scale(1, -1)"
	style="font-family:Helvetica;font-weight:normal;font-style:normal;font-size:12pt">Write 2M keys, 1000-client (etcd v3 100-conn), 8-byte key, 256-byte value, Memory(MB)</text>
<text x="544.98" y="-4.8486" transform="scale(1, -1)"
	style="font-family:Helvetica;font-weight:normal;font-style:normal;font-size:12pt">Second</text>
<text x="57.358" y="-19.498" transform="scale(1, -1)"
	style="font-family:Helvetica;font-weight:normal;font-style:normal;font-size:10pt">0</text>
<text x="377.43" y="-19.498" transform="scale(1, -1)"
	style="font-family:Helvetica;font-weight:normal;font-style:normal;font-size:10pt">20</text>
<text x="700.97" y="-19.498" transform="scale(1, -1)"
	style="font-family:Helvetica;font-weight:normal;font-style:normal;font-size:10pt">40</text>
<text x="1024.5" y="-19.498" transform="scale(1, -1)"
	style="font-family:Helvetica;font-weight:normal;font-style:normal;font-size:10pt">60</text>
<path d="M60.834,31.498L60.834,41.498" style="fill:none;stroke:#000000;stroke-width:0.625" />
<path d="M384.38,31.498L384.38,41.498" style="fill:none;stroke:#000000;stroke-width:0.625" />
<path d="M707.92,31.498L707.92,41.498" style="fill:none;stroke:#000000;stroke-width:0.625" />
<path d="M1031.5,31.498L1031.5,41.498" style="fill:none;stroke:#000000;stroke-width:0.625" />
<path d="M222.61,36.498L222.61,41.498" style="fill:none;stroke:#000000;stroke-width:0.625" />
<path d="M546.15,36.498L546.15,41.498" style="fill:none;stroke:#000000;stroke-width:0.625" />
<path d="M869.7,36.498L869.7,41.498" style="fill:none;stroke:#000000;stroke-width:0.625" />
<path d="M60.834,41.498L1080,41.498" style="fill:none;stroke:#000000;stroke-width:0.625" />
<g transform="rotate(90)">
<text x="331.08" y="14.399" transform="scale(1, -1)"
	style="font-family:Helvetica;font-weight:normal;font-style:normal;font-size:12pt">Memory(MB)</text>
</g>
<text x="19.248" y="-200.33" transform="scale(1, -1)"
	style="font-family:Helvetica;font-weight:normal;font-style:normal;font-size:10pt">200</text>
<text x="19.248" y="-374.26" transform="scale(1, -1)"
	style="font-family:Helvetica;font-weight:normal;font-style:normal;font-size:10pt">400</text>
<text x="19.248" y="-548.19" transform="scale(1, -1)"
	style="font-family:Helvetica;font-weight:normal;font-style:normal;font-size:10pt">600</text>
<path d="M43.577,206.21L53.577,206.21" style="fill:none;stroke:#000000;stroke-width:0.625" />
<path d="M43.577,380.14L53.577,380.14" style="fill:none;stroke:#000000;stroke-width:0.625" />
<path d="M43.577,554.07L53.577,554.07" style="fill:none;stroke:#000000;stroke-width:0.625" />
<path d="M48.577,119.24L53.577,119.24" style="fill:none;stroke:#000000;stroke-width:0.625" />
<path d="M48.577,293.17L53.577,293.17" style="fill:none;stroke:#000000;stroke-width:0.625" />
<path d="M48.577,467.1L53.577,467.1" style="fill:none;stroke:#000000;stroke-width:0.625" />
<path d="M48.577,641.03L53.577,641.03" style="fill:none;stroke:#000000;stroke-width:0.625" />
<path d="M53.577,48.06L53.577,700.75" style="fill:none;stroke:#000000;stroke-width:0.625" />
<path d="M60.834,48.06L77.011,94.917L93.188,106.81L109.37,117.44L125.54,128.94L141.72,142.28L157.9,152.95L174.07,168.21L190.25,176L206.43,186.94L222.61,201.21L238.78,211.5L254.96,225.08L271.14,236.84L287.32,244.7L303.49,257.87L319.67,270.65L335.85,281.11L352.02,289.82L368.2,302.74L384.38,319.25L400.56,329.18L416.73,340.45L432.91,348.11L449.09,360.54L465.26,373.65L481.44,389.27L497.62,398.16L513.8,404.86L529.97,418.61L546.15,430.59L562.33,440.91L578.51,451.94L594.68,466.67L610.86,471.98L627.04,485.33L643.21,497.09L659.39,508.49L675.57,517.86L691.75,528.76L707.92,537.36L724.1,547.48L740.28,561.41L756.46,575.01L772.63,589.53L788.81,597.71L804.99,607.93L821.16,615.58L837.34,632.98L853.52,642.79L869.7,654.2L885.87,664.12L902.05,671.66L918.23,684.22L934.4,694.66" style="fill:none;stroke:#F15A60;stroke-width:1.875" />
<path d="M60.834,50.374L77.011,97.178L93.188,106.66L109.37,118.66L125.54,127.89L141.72,141.16L157.9,148.91L174.07,159.84L190.25,168.93L206.43,176.66L222.61,188.67L238.78,200.6L254.96,208.57L271.14,218.67L287.32,231.9L303.49,244.49L319.67,254.25L335.85,261.48L352.02,272.81L368.2,285.31L384.38,295.96L400.56,311.38L416.73,318.17L432.91,331.24L449.09,338.53L465.26,346.51L481.44,361.46L497.62,371.03L513.8,375.02L529.97,382.26L546.15,397.5L562.33,407.71L578.51,416.46L594.68,431.58L610.86,439.58L627.04,448.14L643.21,454.47L659.39,464.08L675.57,478.73L691.75,488.29L707.92,499.66L724.1,507.25L740.28,514.69L756.46,526.45L772.63,534.85L788.81,545.75L804.99,557.7L821.16,567.67L837.34,577.84L853.52,586.5L869.7,592.64L885.87,607.48L902.05,614.58L918.23,623.22L934.4,638.22L950.58,648.01L966.76,652.14L982.94,665.95L999.11,670.49L1015.3,684.22L1031.5,695.87" style="fill:none;stroke:#7AC36A;stroke-width:1.875;stroke-dasharray:7.5,2.5" />
<path d="M60.834,51.261L77.011,97.952L93.188,111.41L109.37,121.15L125.54,134.38L141.72,141.74L157.9,152.31L174.07,162.44L190.25,174.08L206.43,180.24L222.61,191.6L238.78,202.16L254.96,212.34L271.14,222.76L287.32,232.82L303.49,241.78L319.67,253.08L335.85,262.13L352.02,270.06L368.2,279.63L384.38,292.15L400.56,299.79L416.73,311.54L432.91,319.34L449.09,328.69L465.26,338.98L481.44,347.69L497.62,360.47L513.8,367.81L529.97,376.61L546.15,385.65L562.33,393.85L578.51,403.3L594.68,414.67L610.86,422.85L627.04,434.67L643.21,443.39L659.39,454.25L675.57,464.03L691.75,468.91L707.92,482.21L724.1,492.14L740.28,499.09L756.46,511.24L772.63,519.63L788.81,526.36L804.99,536.05L821.16,548.18L837.34,561.13L853.52,567.31L869.7,578.88L885.87,587.65L902.05,597.19L918.23,605.52L934.4,617.82L950.58,624.54L966.76,633.8L982.94,646.53L999.11,655.98L1015.3,663.58L1031.5,677.2L1047.6,687.25L1063.8,694.69L1080,700.75" style="fill:none;stroke:#5A9BD4;stroke-width:1.875;stroke-dasharray:2.5,2.5" />
<path d="M1055,693.4L1080,693.4" style="fill:none;stroke:#F15A60;stroke-width:1.875" />
<text x="944.13" y="-686.35" transform="scale(1, -1)"
	style="font-family:Helvetica;font-weight:normal;font-style:normal;font-size:12pt">etcd v3 (Go Tip)</text>
<path d="M1055,678.7L1080,678.7" style="fill:none;stroke:#7AC36A;stroke-width:1.875;stroke-dasharray:7.5,2.5" />
<text x="943.28" y="-671.65" transform="scale(1, -1)"
	style="font-family:Helvetica;font-weight:normal;font-style:normal;font-size:12pt">etcd v3 (Go 1.6)</text>
<path d="M1055,664L1080,664" style="fill:none;stroke:#5A9BD4;stroke-width:1.875;stroke-dasharray:2.5,2.5" />
<text x="943.28" y="-656.95" transform="scale(1, -1)"
	style="font-family:Helvetica;font-weight:normal;font-style:normal;font-size:12pt">etcd v3 (Go 1.5)</text>
</g>
</svg>
