<?xml version="1.0"?>
<!-- Generated by SVGo and Plotinum VG -->
<svg width="12in" height="8in"
	xmlns="http://www.w3.org/2000/svg"
	xmlns:xlink="http://www.w3.org/1999/xlink">
<g transform="scale(1, -1) translate(0, -720)">
<path d="M0,0L1080,0L1080,720L0,720Z" style="fill:#FFFFFF" />
<text x="275.57" y="-705.6" transform="scale(1, -1)"
	style="font-family:Helvetica;font-weight:normal;font-style:normal;font-size:12pt">Write 2M keys, 1000-client (etcd v3 100-conn), 8-byte key, 256-byte value, CPU</text>
<text x="544.98" y="-4.8486" transform="scale(1, -1)"
	style="font-family:Helvetica;font-weight:normal;font-style:normal;font-size:12pt">Second</text>
<text x="57.358" y="-19.498" transform="scale(1, -1)"
	style="font-family:Helvetica;font-weight:normal;font-style:normal;font-size:10pt">0</text>
<text x="377.43" y="-19.498" transform="scale(1, -1)"
	style="font-family:Helvetica;font-weight:normal;font-style:normal;font-size:10pt">20</text>
<text x="700.97" y="-19.498" transform="scale(1, -1)"
	style="font-family:Helvetica;font-weight:normal;font-style:normal;font-size:10pt">40</text>
<text x="1024.5" y="-19.498" transform="scale(1, -1)"
	style="font-family:Helvetica;font-weight:normal;font-style:normal;font-size:10pt">60</text>
<path d="M60.834,31.498L60.834,41.498" style="fill:none;stroke:#000000;stroke-width:0.625" />
<path d="M384.38,31.498L384.38,41.498" style="fill:none;stroke:#000000;stroke-width:0.625" />
<path d="M707.92,31.498L707.92,41.498" style="fill:none;stroke:#000000;stroke-width:0.625" />
<path d="M1031.5,31.498L1031.5,41.498" style="fill:none;stroke:#000000;stroke-width:0.625" />
<path d="M222.61,36.498L222.61,41.498" style="fill:none;stroke:#000000;stroke-width:0.625" />
<path d="M546.15,36.498L546.15,41.498" style="fill:none;stroke:#000000;stroke-width:0.625" />
<path d="M869.7,36.498L869.7,41.498" style="fill:none;stroke:#000000;stroke-width:0.625" />
<path d="M60.834,41.498L1080,41.498" style="fill:none;stroke:#000000;stroke-width:0.625" />
<g transform="rotate(90)">
<text x="358.57" y="14.399" transform="scale(1, -1)"
	style="font-family:Helvetica;font-weight:normal;font-style:normal;font-size:12pt">CPU</text>
</g>
<text x="19.248" y="-202.87" transform="scale(1, -1)"
	style="font-family:Helvetica;font-weight:normal;font-style:normal;font-size:10pt">100</text>
<text x="19.248" y="-367.68" transform="scale(1, -1)"
	style="font-family:Helvetica;font-weight:normal;font-style:normal;font-size:10pt">200</text>
<text x="19.248" y="-532.49" transform="scale(1, -1)"
	style="font-family:Helvetica;font-weight:normal;font-style:normal;font-size:10pt">300</text>
<path d="M43.577,208.75L53.577,208.75" style="fill:none;stroke:#000000;stroke-width:0.625" />
<path d="M43.577,373.56L53.577,373.56" style="fill:none;stroke:#000000;stroke-width:0.625" />
<path d="M43.577,538.37L53.577,538.37" style="fill:none;stroke:#000000;stroke-width:0.625" />
<path d="M48.577,126.34L53.577,126.34" style="fill:none;stroke:#000000;stroke-width:0.625" />
<path d="M48.577,291.15L53.577,291.15" style="fill:none;stroke:#000000;stroke-width:0.625" />
<path d="M48.577,455.96L53.577,455.96" style="fill:none;stroke:#000000;stroke-width:0.625" />
<path d="M48.577,620.77L53.577,620.77" style="fill:none;stroke:#000000;stroke-width:0.625" />
<path d="M53.577,48.06L53.577,700.75" style="fill:none;stroke:#000000;stroke-width:0.625" />
<path d="M60.834,48.06L77.011,129.64L93.188,193.6L109.37,247.12L125.54,295.39L141.72,335.29L157.9,368.4L174.07,397.09L190.25,421.29L206.43,442.32L222.61,460.77L238.78,477.27L254.96,493.36L271.14,506.67L287.32,519.73L303.49,530.47L319.67,541.45L335.85,551.02L352.02,559.48L368.2,568.71L384.38,576.34L400.56,583.16L416.73,589.9L432.91,594.88L449.09,601.14L465.26,606.38L481.44,610.27L497.62,615.28L513.8,618.69L529.97,622.6L546.15,625.45L562.33,628.57L578.51,631.61L594.68,634.66L610.86,638.57L627.04,641.9L643.21,644.87L659.39,647.39L675.57,649.91L691.75,651.95L707.92,654.37L724.1,656.83L740.28,659.29L756.46,661.63L772.63,663.21L788.81,664.74L804.99,666.64L821.16,668.89L837.34,671.12L853.52,672.34L869.7,673.54L885.87,675.65L902.05,677.02L918.23,678.14L934.4,679.49" style="fill:none;stroke:#F15A60;stroke-width:1.875" />
<path d="M60.834,48.654L77.011,128.49L93.188,193.44L109.37,251.38L125.54,297.22L141.72,334.2L157.9,366.8L174.07,394.52L190.25,418.43L206.43,438.69L222.61,457.4L238.78,474.09L254.96,488.12L271.14,501.51L287.32,514.42L303.49,525.56L319.67,535.23L335.85,544.5L352.02,552.94L368.2,561.04L384.38,568.38L400.56,575.68L416.73,581.28L432.91,587.2L449.09,591.98L465.26,596.53L481.44,602.3L497.62,606.2L513.8,610.59L529.97,613.83L546.15,617.92L562.33,621.25L578.51,625.24L594.68,628.83L610.86,632.06L627.04,635.19L643.21,638.52L659.39,641.57L675.57,643.96L691.75,646.43L707.92,649L724.1,651.64L740.28,653.48L756.46,655.89L772.63,658.21L788.81,659.81L804.99,661.79L821.16,663.24L837.34,665.5L853.52,667.58L869.7,669.11L885.87,670.36L902.05,671.89L918.23,673.84L934.4,675.22L950.58,676.92L966.76,678.32L982.94,679.48L999.11,680.69L1015.3,681.78L1031.5,683.41" style="fill:none;stroke:#7AC36A;stroke-width:1.875;stroke-dasharray:7.5,2.5" />
<path d="M60.834,48.555L77.011,131.22L93.188,201.32L109.37,257.8L125.54,304.8L141.72,345.03L157.9,375.88L174.07,404.39L190.25,428.87L206.43,450.13L222.61,470.07L238.78,487.14L254.96,503.57L271.14,516.64L287.32,527.46L303.49,539.26L319.67,549.49L335.85,558.77L352.02,566.68L368.2,574.92L384.38,583.34L400.56,589.44L416.73,596.3L432.91,602.15L449.09,607.59L465.26,613.39L481.44,617.69L497.62,622.48L513.8,627.28L529.97,631.14L546.15,635.16L562.33,639.25L578.51,642.71L594.68,645.56L610.86,648.89L627.04,651.82L643.21,654.61L659.39,658L675.57,660.08L691.75,662.63L707.92,664.79L724.1,667.48L740.28,670.34L756.46,672.44L772.63,673.77L788.81,675.01L804.99,676.77L821.16,678.72L837.34,680.02L853.52,680.88L869.7,683.1L885.87,685L902.05,685.66L918.23,687.11L934.4,689.26L950.58,690.06L966.76,690.9L982.94,693.47L999.11,694.14L1015.3,695.48L1031.5,697.32L1047.6,697.85L1063.8,699.98L1080,700.75" style="fill:none;stroke:#5A9BD4;stroke-width:1.875;stroke-dasharray:2.5,2.5" />
<path d="M1055,693.4L1080,693.4" style="fill:none;stroke:#F15A60;stroke-width:1.875" />
<text x="944.13" y="-686.35" transform="scale(1, -1)"
	style="font-family:Helvetica;font-weight:normal;font-style:normal;font-size:12pt">etcd v3 (Go Tip)</text>
<path d="M1055,678.7L1080,678.7" style="fill:none;stroke:#7AC36A;stroke-width:1.875;stroke-dasharray:7.5,2.5" />
<text x="943.28" y="-671.65" transform="scale(1, -1)"
	style="font-family:Helvetica;font-weight:normal;font-style:normal;font-size:12pt">etcd v3 (Go 1.6)</text>
<path d="M1055,664L1080,664" style="fill:none;stroke:#5A9BD4;stroke-width:1.875;stroke-dasharray:2.5,2.5" />
<text x="943.28" y="-656.95" transform="scale(1, -1)"
	style="font-family:Helvetica;font-weight:normal;font-style:normal;font-size:12pt">etcd v3 (Go 1.5)</text>
</g>
</svg>
