<?xml version="1.0"?>
<!-- Generated by SVGo and Plotinum VG -->
<svg width="12in" height="8in"
	xmlns="http://www.w3.org/2000/svg"
	xmlns:xlink="http://www.w3.org/1999/xlink">
<g transform="scale(1, -1) translate(0, -720)">
<path d="M0,0L1080,0L1080,720L0,720Z" style="fill:#FFFFFF" />
<text x="275.57" y="-705.6" transform="scale(1, -1)"
	style="font-family:Helvetica;font-weight:normal;font-style:normal;font-size:12pt">Write 2M keys, 1000-client (etcd v3 100-conn), 8-byte key, 256-byte value, CPU</text>
<text x="544.98" y="-4.8486" transform="scale(1, -1)"
	style="font-family:Helvetica;font-weight:normal;font-style:normal;font-size:12pt">Second</text>
<text x="57.358" y="-19.498" transform="scale(1, -1)"
	style="font-family:Helvetica;font-weight:normal;font-style:normal;font-size:10pt">0</text>
<text x="237.75" y="-19.498" transform="scale(1, -1)"
	style="font-family:Helvetica;font-weight:normal;font-style:normal;font-size:10pt">100</text>
<text x="425.1" y="-19.498" transform="scale(1, -1)"
	style="font-family:Helvetica;font-weight:normal;font-style:normal;font-size:10pt">200</text>
<text x="612.45" y="-19.498" transform="scale(1, -1)"
	style="font-family:Helvetica;font-weight:normal;font-style:normal;font-size:10pt">300</text>
<text x="799.79" y="-19.498" transform="scale(1, -1)"
	style="font-family:Helvetica;font-weight:normal;font-style:normal;font-size:10pt">400</text>
<text x="987.14" y="-19.498" transform="scale(1, -1)"
	style="font-family:Helvetica;font-weight:normal;font-style:normal;font-size:10pt">500</text>
<path d="M60.834,31.498L60.834,41.498" style="fill:none;stroke:#000000;stroke-width:0.625" />
<path d="M248.18,31.498L248.18,41.498" style="fill:none;stroke:#000000;stroke-width:0.625" />
<path d="M435.53,31.498L435.53,41.498" style="fill:none;stroke:#000000;stroke-width:0.625" />
<path d="M622.87,31.498L622.87,41.498" style="fill:none;stroke:#000000;stroke-width:0.625" />
<path d="M810.22,31.498L810.22,41.498" style="fill:none;stroke:#000000;stroke-width:0.625" />
<path d="M997.57,31.498L997.57,41.498" style="fill:none;stroke:#000000;stroke-width:0.625" />
<path d="M154.51,36.498L154.51,41.498" style="fill:none;stroke:#000000;stroke-width:0.625" />
<path d="M341.85,36.498L341.85,41.498" style="fill:none;stroke:#000000;stroke-width:0.625" />
<path d="M529.2,36.498L529.2,41.498" style="fill:none;stroke:#000000;stroke-width:0.625" />
<path d="M716.55,36.498L716.55,41.498" style="fill:none;stroke:#000000;stroke-width:0.625" />
<path d="M903.89,36.498L903.89,41.498" style="fill:none;stroke:#000000;stroke-width:0.625" />
<path d="M60.834,41.498L1080,41.498" style="fill:none;stroke:#000000;stroke-width:0.625" />
<g transform="rotate(90)">
<text x="358.57" y="14.399" transform="scale(1, -1)"
	style="font-family:Helvetica;font-weight:normal;font-style:normal;font-size:12pt">CPU</text>
</g>
<text x="19.248" y="-210.14" transform="scale(1, -1)"
	style="font-family:Helvetica;font-weight:normal;font-style:normal;font-size:10pt">100</text>
<text x="19.248" y="-379.85" transform="scale(1, -1)"
	style="font-family:Helvetica;font-weight:normal;font-style:normal;font-size:10pt">200</text>
<text x="19.248" y="-549.56" transform="scale(1, -1)"
	style="font-family:Helvetica;font-weight:normal;font-style:normal;font-size:10pt">300</text>
<path d="M43.577,216.02L53.577,216.02" style="fill:none;stroke:#000000;stroke-width:0.625" />
<path d="M43.577,385.73L53.577,385.73" style="fill:none;stroke:#000000;stroke-width:0.625" />
<path d="M43.577,555.43L53.577,555.43" style="fill:none;stroke:#000000;stroke-width:0.625" />
<path d="M48.577,131.17L53.577,131.17" style="fill:none;stroke:#000000;stroke-width:0.625" />
<path d="M48.577,300.87L53.577,300.87" style="fill:none;stroke:#000000;stroke-width:0.625" />
<path d="M48.577,470.58L53.577,470.58" style="fill:none;stroke:#000000;stroke-width:0.625" />
<path d="M48.577,640.29L53.577,640.29" style="fill:none;stroke:#000000;stroke-width:0.625" />
<path d="M53.577,48.06L53.577,700.75" style="fill:none;stroke:#000000;stroke-width:0.625" />
<path d="M60.834,146.07L62.707,199.32L64.581,224.81L66.454,269.49L68.328,299.5L70.201,326.53L72.075,349.66L73.948,367.47L75.821,385.98L77.695,404.63L79.568,417.1L81.442,423.32L83.315,438.16L85.189,447.06L87.062,451.93L88.936,463.64L90.809,468.54L92.683,475.55L94.556,480.05L96.43,488.64L98.303,496.7L100.18,506.68L102.05,511.17L103.92,515.4L105.8,522.27L107.67,527.24L109.54,532.15L111.42,536.41L113.29,541.55L115.16,545.74L117.04,547.22L118.91,545.32L120.78,557.15L122.66,560.68L124.53,563.36L126.41,565.85L128.28,568.7L130.15,567.01L132.03,568.86L133.9,559.67L135.77,549.93L137.65,540.89L139.52,531.54L141.39,521.92L143.27,512.7L145.14,503.84L147.01,495.19L148.89,488.04L150.76,481.63L152.63,474.53L154.51,467.25L156.38,460.58L158.25,453.66L160.13,447.99L162,441.69L163.87,435.86L165.75,430.07L167.62,424.28L169.49,418.63L171.37,414.24L173.24,410.62L175.12,407.8L176.99,411.15L178.86,414.68L180.74,418.6L182.61,422.25L184.48,425.52L186.36,428.56L188.23,431.43L190.1,430.21L191.98,426.73L193.85,424.05L195.72,420.97L197.6,419.73L199.47,416.68L201.34,414.8L203.22,411.35L205.09,407.99L206.96,404.53L208.84,403.65L210.71,406.43L212.58,406.04L214.46,408.36L216.33,409.35L218.21,412.69L220.08,415.68L221.95,418.12L223.83,424.23L225.7,426.4L227.57,428.47L229.45,431.87L231.32,434.84L233.19,437.62L235.07,439.22L236.94,438.45L238.81,435.53L240.69,432.12L242.56,428.61L244.43,425.08L246.31,421.53L248.18,417.97L250.05,415.03L251.93,412.34L253.8,409.38L255.67,406.19L257.55,403.14L259.42,400.03L261.29,397.5L263.17,394.97L265.04,393.12L266.92,391.53L268.79,390.19L270.66,388.42L272.54,387.81L274.41,388.78L276.28,389.61L278.16,390.1L280.03,388.1L281.9,386.93L283.78,385.67L285.65,384.49L287.52,383.11L289.4,382.64L291.27,381.69L293.14,380.23L295.02,379.29L296.89,377.21L298.76,374.97L300.64,373.01L302.51,371.08L304.38,369.33L306.26,367.7L308.13,367.36L310,368.45L311.88,368.82L313.75,371.18" style="fill:none;stroke:#F15A60;stroke-width:1.875" />
<path d="M60.834,50.555L62.707,134.56L64.581,200.42L66.454,255.53L68.328,305.23L70.201,346.32L72.075,380.41L73.948,409.96L75.821,434.87L77.695,456.53L79.568,475.53L81.442,492.52L83.315,509.09L85.189,522.8L87.062,536.24L88.936,547.3L90.809,558.61L92.683,568.47L94.556,577.17L96.43,586.68L98.303,594.53L100.18,601.56L102.05,608.5L103.92,613.62L105.8,620.07L107.67,625.47L109.54,629.48L111.42,634.63L113.29,638.15L115.16,642.17L117.04,645.11L118.91,648.31L120.78,651.45L122.66,654.59L124.53,658.61L126.41,662.04L128.28,665.1L130.15,667.69L132.03,670.29L133.9,672.39L135.77,674.89L137.65,677.42L139.52,679.95L141.39,682.36L143.27,683.98L145.14,685.56L147.01,687.51L148.89,689.84L150.76,692.13L152.63,693.39L154.51,694.63L156.38,696.8L158.25,698.21L160.13,699.36L162,700.75" style="fill:none;stroke:#7AC36A;stroke-width:1.875;stroke-dasharray:7.5,2.5" />
<path d="M60.834,48.06L62.707,52.269L64.581,55.052L66.454,58.243L68.328,60.432L70.201,62.384L72.075,63.47L73.948,64.437L75.821,64.759L77.695,65.795L79.568,68.018L81.442,68.34L83.315,69.138L85.189,69.596L87.062,69.868L88.936,72.447L90.809,73.007L92.683,72.668L94.556,73.041L96.43,73.075L98.303,74.008L100.18,75.689L102.05,75.96L103.92,75.739L105.8,75.841L107.67,75.655L109.54,75.57L111.42,76.639L113.29,78.336L115.16,78.183L117.04,78.081L118.91,78.234L120.78,78.743L122.66,79.218L124.53,79.184L126.41,79.168L128.28,78.998L130.15,78.964L132.03,79.66L133.9,79.982L135.77,79.897L137.65,79.694L139.52,79.456L141.39,79.405L143.27,79.795L145.14,80.305L147.01,80.084L148.89,80.22L150.76,80.05L152.63,79.897L154.51,80.101L156.38,80.559L158.25,81.628L160.13,81.815L162,81.764L163.87,82.545L165.75,83.003L167.62,83.631L169.49,83.716L171.37,83.682L173.24,84.072L175.12,84.666L176.99,85.158L178.86,85.973L180.74,86.584L182.61,86.482L184.48,86.227L186.36,86.38L188.23,86.787L190.1,87.28L191.98,87.789L193.85,87.857L195.72,87.653L197.6,88.009L199.47,88.518L201.34,89.452L203.22,89.554L205.09,89.367L206.96,89.367L208.84,89.588L210.71,89.91L212.58,90.181L214.46,90.436L216.33,90.826L218.21,90.843L220.08,90.792L221.95,91.03L223.83,91.59L225.7,92.286L227.57,92.303L229.45,92.099L231.32,91.997L233.19,91.896L235.07,92.506L236.94,93.134L238.81,93.44L240.69,93.762L242.56,93.644L244.43,93.457L246.31,93.423L248.18,93.61L250.05,94.136L251.93,94.747L253.8,95.035L255.67,94.848L257.55,94.696L259.42,94.56L261.29,94.373L263.17,94.798L265.04,95.375L266.92,95.561L268.79,95.68L270.66,95.697L272.54,95.561L274.41,95.476L276.28,95.273L278.16,95.375L280.03,95.646L281.9,96.104L283.78,96.596L285.65,96.698L287.52,96.529L289.4,96.41L291.27,96.308L293.14,96.444L295.02,96.698L296.89,96.868L298.76,97.173L300.64,97.292L302.51,97.428L304.38,97.411L306.26,97.241L308.13,97.156L310,97.19L311.88,97.649L313.75,98.124L315.63,97.903L317.5,98.056L319.37,98.276L321.25,98.192L323.12,98.022L324.99,97.988L326.87,98.192L328.74,98.48L330.61,98.82L332.49,99.023L334.36,99.193L336.23,99.43L338.11,99.447L339.98,99.312L341.85,99.363L343.73,99.447L345.6,99.464L347.47,99.193L349.35,98.972L351.22,99.227L353.09,99.634L354.97,100.09L356.84,100.25L358.72,100.14L360.59,99.974L362.46,99.94L364.34,100.06L366.21,100.11L368.08,99.872L369.96,99.872L371.83,100.18L373.7,100.53L375.58,100.81L377.45,100.74L379.32,100.79L381.2,100.92L383.07,101.28L384.94,101.69L386.82,101.98L388.69,102.03L390.56,102.11L392.44,102.04L394.31,102.03L396.18,102.13L398.06,102.45L399.93,102.77L401.8,102.86L403.68,102.86L405.55,103.1L407.43,103.25L409.3,103.16L411.17,103.01L413.05,102.94L414.92,103.03L416.79,103.28L418.67,103.57L420.54,103.76L422.41,103.69L424.29,103.79L426.16,103.98L428.03,104.08L429.91,103.93L431.78,103.84L433.65,103.98L435.53,104.27L437.4,104.54L439.27,104.66L441.15,104.74L443.02,104.9L444.89,105.03L446.77,105.01L448.64,104.96L450.51,105.05L452.39,105.1L454.26,105.27L456.14,105.44L458.01,105.73L459.88,105.95L461.76,106.1L463.63,106.08L465.5,106.02L467.38,106.03L469.25,106.05L471.12,106.07L473,105.88L474.87,106.07L476.74,106.34L478.62,106.58L480.49,106.83L482.36,106.97L484.24,107.03L486.11,107.03L487.98,107.19L489.86,107.42L491.73,107.54L493.6,107.63L495.48,107.64L497.35,107.71L499.23,107.78L501.1,107.8L502.97,107.66L504.85,107.63L506.72,107.66L508.59,107.9L510.47,108.12L512.34,108.36L514.21,108.53L516.09,108.54L517.96,108.63L519.83,108.7L521.71,108.68L523.58,108.66L525.45,108.7L527.33,108.88L529.2,109.09L531.07,109.1L532.95,109.19L534.82,109.27L536.69,109.32L538.57,109.41L540.44,109.48L542.31,109.48L544.19,109.51L546.06,109.55L547.94,109.75L549.81,109.99L551.68,110.19L553.56,110.38L555.43,110.46L557.3,110.46L559.18,110.39L561.05,110.39L562.92,110.53L564.8,110.72L566.67,110.9L568.54,111.04L570.42,111.16L572.29,111.23L574.16,111.28L576.04,111.34L577.91,111.39L579.78,111.41L581.66,111.39L583.53,111.39L585.4,111.31L587.28,111.21L589.15,111.24L591.03,111.41L592.9,111.6L594.77,111.75L596.65,111.79L598.52,111.68L600.39,111.67L602.27,111.68L604.14,111.72L606.01,111.79L607.89,111.84L609.76,111.97L611.63,112.14L613.51,112.31L615.38,112.41L617.25,112.45L619.13,112.45L621,112.48L622.87,112.51L624.75,112.53L626.62,112.68L628.49,112.85L630.37,113.02L632.24,113.21L634.11,113.3L635.99,113.36L637.86,113.41L639.74,113.47L641.61,113.47L643.48,113.47L645.36,113.45L647.23,113.43L649.1,113.41L650.98,113.45L652.85,113.6L654.72,113.75L656.6,113.91L658.47,114.08L660.34,114.13L662.22,114.11L664.09,114.13L665.96,114.14L667.84,114.25L669.71,114.45L671.58,114.59L673.46,114.74L675.33,114.87L677.2,114.92L679.08,114.92L680.95,114.92L682.82,114.96L684.7,115.03L686.57,115.15L688.45,115.32L690.32,115.45L692.19,115.6L694.07,115.74L695.94,115.82L697.81,115.89L699.69,115.89L701.56,115.89L703.43,115.93L705.31,116.06L707.18,116.18L709.05,116.32L710.93,116.5L712.8,116.66L714.67,116.69L716.55,116.72L718.42,116.76L720.29,116.86L722.17,116.94L724.04,117.03L725.91,117.16L727.79,117.28L729.66,117.42L731.54,117.52L733.41,117.64L735.28,117.67L737.16,117.69L739.03,117.72L740.9,117.78L742.78,117.89L744.65,117.95L746.52,118.06L748.4,118.18L750.27,118.3L752.14,118.39L754.02,118.47L755.89,118.52L757.76,118.52L759.64,118.54L761.51,118.56L763.38,118.64L765.26,118.76L767.13,118.79L769,118.84L770.88,118.95L772.75,119.07L774.62,119.1L776.5,119.22L778.37,119.34L780.25,119.46L782.12,119.49L783.99,119.51L785.87,119.63L787.74,119.61L789.61,119.63L791.49,119.68L793.36,119.8L795.23,119.86L797.11,119.96L798.98,120.08L800.85,120.19L802.73,120.27L804.6,120.27L806.47,120.36L808.35,120.34L810.22,120.34L812.09,120.36L813.97,120.46L815.84,120.58L817.71,120.63L819.59,120.73L821.46,120.83L823.33,120.93L825.21,120.97L827.08,121L828.96,121.12L830.83,121.14L832.7,121.14L834.58,121.22L836.45,121.32L838.32,121.39L840.2,121.46L842.07,121.58L843.94,121.66L845.82,121.73L847.69,121.75L849.56,121.75L851.44,121.76L853.31,121.76L855.18,121.76L857.06,121.85L858.93,121.95L860.8,122L862.68,122.07L864.55,122.17L866.42,122.26L868.3,122.34L870.17,122.31L872.05,122.32L873.92,122.43L875.79,122.53L877.67,122.6L879.54,122.68L881.41,122.77L883.29,122.8L885.16,122.82L887.03,122.88L888.91,122.97L890.78,123.05L892.65,123.09L894.53,123.1L896.4,123.16L898.27,123.22L900.15,123.24L902.02,123.24L903.89,123.33L905.77,123.43L907.64,123.51L909.51,123.55L911.39,123.55L913.26,123.65L915.13,123.7L917.01,123.7L918.88,123.72L920.76,123.8L922.63,123.89L924.5,123.99L926.38,124.05L928.25,124.14L930.12,124.22L932,124.31L933.87,124.29L935.74,124.38L937.62,124.45L939.49,124.46L941.36,124.46L943.24,124.46L945.11,124.55L946.98,124.58L948.86,124.65L950.73,124.73L952.6,124.82L954.48,124.89L956.35,124.89L958.22,124.9L960.1,124.99L961.97,124.97L963.85,124.99L965.72,125.01L967.59,125.09L969.47,125.17L971.34,125.28L973.21,125.33L975.09,125.41L976.96,125.48L978.83,125.51L980.71,125.51L982.58,125.58L984.45,125.65L986.33,125.7L988.2,125.7L990.07,125.79L991.95,125.85L993.82,125.94L995.69,126.01L997.57,126.09L999.44,126.16L1001.3,126.19L1003.2,126.19L1005.1,126.28L1006.9,126.35L1008.8,126.35L1010.7,126.35L1012.6,126.4L1014.4,126.46L1016.3,126.55L1018.2,126.58L1020,126.65L1021.9,126.74L1023.8,126.79L1025.7,126.77L1027.5,126.82L1029.4,126.89L1031.3,126.99L1033.2,127.04L1035,127.04L1036.9,127.09L1038.8,127.16L1040.7,127.23L1042.5,127.3L1044.4,127.38L1046.3,127.43L1048.2,127.47L1050,127.48L1051.9,127.55L1053.8,127.6L1055.6,127.62L1057.5,127.65L1059.4,127.67L1061.3,127.75L1063.1,127.84L1065,127.82L1066.9,127.89L1068.8,127.96L1070.6,128.04L1072.5,128.09L1074.4,128.16L1076.3,128.18L1078.1,128.25L1080,128.3" style="fill:none;stroke:#5A9BD4;stroke-width:1.875;stroke-dasharray:2.5,2.5" />
<path d="M1055,693.4L1080,693.4" style="fill:none;stroke:#F15A60;stroke-width:1.875" />
<text x="795.68" y="-686.35" transform="scale(1, -1)"
	style="font-family:Helvetica;font-weight:normal;font-style:normal;font-size:12pt">Zookeeper v3.4.8 (Java 8, Snap 100k)</text>
<path d="M1055,678.7L1080,678.7" style="fill:none;stroke:#7AC36A;stroke-width:1.875;stroke-dasharray:7.5,2.5" />
<text x="944.13" y="-671.65" transform="scale(1, -1)"
	style="font-family:Helvetica;font-weight:normal;font-style:normal;font-size:12pt">etcd v3 (Go Tip)</text>
<path d="M1055,664L1080,664" style="fill:none;stroke:#5A9BD4;stroke-width:1.875;stroke-dasharray:2.5,2.5" />
<text x="943.28" y="-656.95" transform="scale(1, -1)"
	style="font-family:Helvetica;font-weight:normal;font-style:normal;font-size:12pt">etcd v2 (Go 1.4)</text>
</g>
</svg>
