<?xml version="1.0"?>
<!-- Generated by SVGo and Plotinum VG -->
<svg width="12in" height="8in"
	xmlns="http://www.w3.org/2000/svg"
	xmlns:xlink="http://www.w3.org/1999/xlink">
<g transform="scale(1, -1) translate(0, -720)">
<path d="M0,0L1080,0L1080,720L0,720Z" style="fill:#FFFFFF" />
<text x="223.05" y="-705.6" transform="scale(1, -1)"
	style="font-family:Helvetica;font-weight:normal;font-style:normal;font-size:12pt">Write 2M keys, 1000-client (etcd v3 100-conn), 8-byte key, 256-byte value, Latency(millisecond)</text>
<text x="548.46" y="-4.8486" transform="scale(1, -1)"
	style="font-family:Helvetica;font-weight:normal;font-style:normal;font-size:12pt">Second</text>
<text x="64.31" y="-19.498" transform="scale(1, -1)"
	style="font-family:Helvetica;font-weight:normal;font-style:normal;font-size:10pt">0</text>
<text x="243.09" y="-19.498" transform="scale(1, -1)"
	style="font-family:Helvetica;font-weight:normal;font-style:normal;font-size:10pt">100</text>
<text x="428.81" y="-19.498" transform="scale(1, -1)"
	style="font-family:Helvetica;font-weight:normal;font-style:normal;font-size:10pt">200</text>
<text x="614.54" y="-19.498" transform="scale(1, -1)"
	style="font-family:Helvetica;font-weight:normal;font-style:normal;font-size:10pt">300</text>
<text x="800.27" y="-19.498" transform="scale(1, -1)"
	style="font-family:Helvetica;font-weight:normal;font-style:normal;font-size:10pt">400</text>
<text x="985.99" y="-19.498" transform="scale(1, -1)"
	style="font-family:Helvetica;font-weight:normal;font-style:normal;font-size:10pt">500</text>
<path d="M67.786,31.498L67.786,41.498" style="fill:none;stroke:#000000;stroke-width:0.625" />
<path d="M253.51,31.498L253.51,41.498" style="fill:none;stroke:#000000;stroke-width:0.625" />
<path d="M439.24,31.498L439.24,41.498" style="fill:none;stroke:#000000;stroke-width:0.625" />
<path d="M624.97,31.498L624.97,41.498" style="fill:none;stroke:#000000;stroke-width:0.625" />
<path d="M810.7,31.498L810.7,41.498" style="fill:none;stroke:#000000;stroke-width:0.625" />
<path d="M996.42,31.498L996.42,41.498" style="fill:none;stroke:#000000;stroke-width:0.625" />
<path d="M160.65,36.498L160.65,41.498" style="fill:none;stroke:#000000;stroke-width:0.625" />
<path d="M346.38,36.498L346.38,41.498" style="fill:none;stroke:#000000;stroke-width:0.625" />
<path d="M532.1,36.498L532.1,41.498" style="fill:none;stroke:#000000;stroke-width:0.625" />
<path d="M717.83,36.498L717.83,41.498" style="fill:none;stroke:#000000;stroke-width:0.625" />
<path d="M903.56,36.498L903.56,41.498" style="fill:none;stroke:#000000;stroke-width:0.625" />
<path d="M67.786,41.498L1080,41.498" style="fill:none;stroke:#000000;stroke-width:0.625" />
<g transform="rotate(90)">
<text x="306.05" y="14.399" transform="scale(1, -1)"
	style="font-family:Helvetica;font-weight:normal;font-style:normal;font-size:12pt">Latency(millisecond)</text>
</g>
<text x="40.104" y="-42.186" transform="scale(1, -1)"
	style="font-family:Helvetica;font-weight:normal;font-style:normal;font-size:10pt">0</text>
<text x="19.248" y="-236.91" transform="scale(1, -1)"
	style="font-family:Helvetica;font-weight:normal;font-style:normal;font-size:10pt">1000</text>
<text x="19.248" y="-431.64" transform="scale(1, -1)"
	style="font-family:Helvetica;font-weight:normal;font-style:normal;font-size:10pt">2000</text>
<text x="19.248" y="-626.36" transform="scale(1, -1)"
	style="font-family:Helvetica;font-weight:normal;font-style:normal;font-size:10pt">3000</text>
<path d="M50.529,48.06L60.529,48.06" style="fill:none;stroke:#000000;stroke-width:0.625" />
<path d="M50.529,242.79L60.529,242.79" style="fill:none;stroke:#000000;stroke-width:0.625" />
<path d="M50.529,437.51L60.529,437.51" style="fill:none;stroke:#000000;stroke-width:0.625" />
<path d="M50.529,632.24L60.529,632.24" style="fill:none;stroke:#000000;stroke-width:0.625" />
<path d="M55.529,145.42L60.529,145.42" style="fill:none;stroke:#000000;stroke-width:0.625" />
<path d="M55.529,340.15L60.529,340.15" style="fill:none;stroke:#000000;stroke-width:0.625" />
<path d="M55.529,534.88L60.529,534.88" style="fill:none;stroke:#000000;stroke-width:0.625" />
<path d="M60.529,48.06L60.529,700.75" style="fill:none;stroke:#000000;stroke-width:0.625" />
<path d="M67.786,50.637L69.643,56.026L71.5,59.301L73.357,53.146L75.215,53.288L77.072,52.904L78.929,53.246L80.787,53.079L82.644,52.856L84.501,52.653L86.358,52.686L88.216,57.364L90.073,60.49L91.93,52.736L93.787,53.027L95.645,52.778L97.502,53.119L99.359,59.328L101.22,52.401L103.07,53.882L104.93,92.166L106.79,52.709L108.65,52.749L110.5,52.932L112.36,53.385L114.22,52.66L116.07,53.424L117.93,52.495L119.79,52.5L121.65,48.06L123.5,66.792L125.36,48.06L127.22,76.234L129.08,52.673L130.93,53.315L132.79,53.125L134.65,55.475L136.5,53.09L138.36,64.137L140.22,155.3L142.08,163.27L143.93,130.15L145.79,48.06L147.65,456.63L149.51,181.88L151.36,48.06L153.22,48.06L155.08,48.06L156.93,48.06L158.79,48.06L160.65,48.06L162.51,48.06L164.36,48.06L166.22,48.06L168.08,48.06L169.94,48.06L171.79,48.06L173.65,48.06L175.51,48.06L177.36,48.06L179.22,700.75L181.08,51.74L182.94,51.288L184.79,51.51L186.65,51.44L188.51,51.541L190.37,51.229L192.22,50.926L194.08,122.41L195.94,73.138L197.79,48.06L199.65,48.06L201.51,48.06L203.37,48.06L205.22,48.06L207.08,48.06L208.94,48.06L210.8,48.06L212.65,94.221L214.51,55.033L216.37,48.06L218.22,63.631L220.08,56.573L221.94,54.22L223.8,53.643L225.65,52.864L227.51,53.468L229.37,48.06L231.23,69.191L233.08,53.329L234.94,52.888L236.8,52.551L238.65,53.652L240.51,57.092L242.37,55.365L244.23,173.05L246.08,48.06L247.94,365.6L249.8,48.06L251.66,374.52L253.51,48.06L255.37,48.06L257.23,48.06L259.08,48.06L260.94,48.06L262.8,48.06L264.66,48.06L266.51,48.06L268.37,48.06L270.23,48.06L272.09,48.06L273.94,48.06L275.8,48.06L277.66,48.06L279.51,48.06L281.37,48.06L283.23,48.06L285.09,48.06L286.94,48.06L288.8,48.06L290.66,48.06L292.52,48.06L294.37,48.06L296.23,48.06L298.09,48.06L299.94,48.06L301.8,48.06L303.66,48.06L305.52,48.06L307.37,48.06L309.23,48.06L311.09,48.06L312.95,48.06L314.8,48.06L316.66,60.527L318.52,54.398L320.37,58.244" style="fill:none;stroke:#F15A60;stroke-width:1.875" />
<path d="M67.786,52.77L69.643,52.671L71.5,53.502L73.357,53.008L75.215,53.241L77.072,53.136L78.929,53.201L80.787,53.232L82.644,53.289L84.501,53.366L86.358,53.329L88.216,53.324L90.073,53.345L91.93,53.212L93.787,53.391L95.645,53.323L97.502,53.458L99.359,53.225L101.22,53.215L103.07,53.42L104.93,53.195L106.79,53.296L108.65,53.501L110.5,53.671L112.36,53.245L114.22,53.589L116.07,53.706L117.93,53.496L119.79,53.403L121.65,54.436L123.5,53.537L125.36,53.432L127.22,54.488L129.08,53.048L130.93,53.356L132.79,53.432L134.65,54.115L136.5,53.613L138.36,53.302L140.22,53.49L142.08,53.56L143.93,53.3L145.79,53.336L147.65,53.511L149.51,53.765L151.36,53.51L153.22,53.429L155.08,53.372L156.93,53.772L158.79,53.763L160.65,53.468L162.51,53.906L164.36,53.9L166.22,52.757L168.08,53.834L169.94,54.077" style="fill:none;stroke:#7AC36A;stroke-width:1.875;stroke-dasharray:7.5,2.5" />
<path d="M67.786,101.38L69.643,110.16L71.5,116.14L73.357,96.991L75.215,120.03L77.072,104.25L78.929,112.33L80.787,115.33L82.644,122.41L84.501,95.368L86.358,123.85L88.216,106.45L90.073,106.04L91.93,110.18L93.787,112.84L95.645,132.39L97.502,101.68L99.359,146.97L101.22,112.68L103.07,110.64L104.93,154.31L106.79,124.21L108.65,121.58L110.5,145.27L112.36,111.5L114.22,137.48L116.07,158.36L117.93,105.35L119.79,99.135L121.65,107.5L123.5,112.32L125.36,96.972L127.22,175.2L129.08,129.61L130.93,120.86L132.79,106.41L134.65,120.92L136.5,127.5L138.36,142.1L140.22,131.33L142.08,106.58L143.93,127.24L145.79,125.25L147.65,106.88L149.51,151.5L151.36,144.02L153.22,136.55L155.08,99.03L156.93,128.46L158.79,113.55L160.65,111.8L162.51,231.39L164.36,120.54L166.22,114.76L168.08,135.56L169.94,101.35L171.79,170.08L173.65,127.37L175.51,100.86L177.36,104.97L179.22,126.85L181.08,104.2L182.94,124.83L184.79,117.29L186.65,109.3L188.51,116.67L190.37,145.35L192.22,123.51L194.08,150.69L195.94,115.8L197.79,132.92L199.65,114.11L201.51,115.73L203.37,48.06L205.22,112.86L207.08,126.38L208.94,116.33L210.8,129.35L212.65,124.66L214.51,74.036L216.37,71.216L218.22,107.38L220.08,131.73L221.94,108.63L223.8,97.142L225.65,132.5L227.51,48.06L229.37,79.838L231.23,48.06L233.08,63.365L234.94,106.57L236.8,101.88L238.65,111.47L240.51,48.06L242.37,171.5L244.23,121.24L246.08,100.2L247.94,141.01L249.8,135.08L251.66,117.33L253.51,48.06L255.37,91.373L257.23,118.14L259.08,91.779L260.94,110.19L262.8,110.14L264.66,125.15L266.51,119.18L268.37,115.39L270.23,48.06L272.09,148.45L273.94,68.781L275.8,79.358L277.66,115.38L279.51,122.31L281.37,121.7L283.23,48.06L285.09,66.857L286.94,74.753L288.8,85.482L290.66,111.29L292.52,104.04L294.37,104.4L296.23,111.88L298.09,48.06L299.94,72.041L301.8,75.644L303.66,83.376L305.52,61.488L307.37,95.332L309.23,128.77L311.09,135.94L312.95,107.97L314.8,140.19L316.66,48.06L318.52,186.14L320.37,48.06L322.23,91.724L324.09,109.64L325.95,133.39L327.8,123.26L329.66,100.25L331.52,48.06L333.38,75.731L335.23,136.54L337.09,48.06L338.95,80.582L340.8,107.63L342.66,116.25L344.52,121.99L346.38,108.55L348.23,48.06L350.09,48.06L351.95,48.06L353.81,180.56L355.66,48.06L357.52,48.06L359.38,109.54L361.23,130.72L363.09,106.82L364.95,138.95L366.81,110.85L368.66,48.06L370.52,48.06L372.38,48.06L374.24,159.51L376.09,48.06L377.95,48.06L379.81,127.8L381.66,123.78L383.52,48.06L385.38,56.782L387.24,59.639L389.09,48.06L390.95,48.06L392.81,171.48L394.67,118.86L396.52,101.56L398.38,91.551L400.24,48.06L402.09,48.06L403.95,48.06L405.81,144.52L407.67,48.06L409.52,90.764L411.38,104.81L413.24,131.57L415.1,104.53L416.95,125.44L418.81,48.06L420.67,48.06L422.52,48.06L424.38,187.52L426.24,48.06L428.1,83.497L429.95,126.79L431.81,110.16L433.67,120.46L435.53,112.45L437.38,48.06L439.24,48.06L441.1,48.06L442.96,170.69L444.81,48.06L446.67,104.83L448.53,102.35L450.38,102.81L452.24,97.847L454.1,48.06L455.96,48.06L457.81,114.19L459.67,48.06L461.53,122.31L463.39,102.24L465.24,143.76L467.1,128.92L468.96,48.06L470.81,48.06L472.67,48.06L474.53,48.06L476.39,187.55L478.24,48.06L480.1,48.06L481.96,48.06L483.82,100.57L485.67,134.36L487.53,93.074L489.39,117.63L491.24,48.06L493.1,87.11L494.96,116.63L496.82,130.85L498.67,74.637L500.53,125.69L502.39,115.96L504.25,157.5L506.1,138.99L507.96,48.06L509.82,68.944L511.67,48.06L513.53,48.06L515.39,98.833L517.25,48.06L519.1,89.219L520.96,137.74L522.82,131.9L524.68,108.1L526.53,48.06L528.39,90.608L530.25,48.06L532.1,160.77L533.96,145.16L535.82,110.44L537.68,59.553L539.53,82.398L541.39,121.73L543.25,126.26L545.11,52.412L546.96,110.45L548.82,123.12L550.68,116.45L552.53,146.57L554.39,48.06L556.25,124.73L558.11,121.49L559.96,122.89L561.82,48.06L563.68,73.463L565.54,48.06L567.39,104.91L569.25,98.342L571.11,48.06L572.96,61.493L574.82,114.8L576.68,132.55L578.54,114.95L580.39,48.06L582.25,48.06L584.11,48.06L585.97,48.06L587.82,133.02L589.68,48.06L591.54,48.06L593.39,48.06L595.25,138.7L597.11,115.81L598.97,108.03L600.82,132.24L602.68,67.587L604.54,112.3L606.4,108.6L608.25,119.49L610.11,86.142L611.97,48.06L613.82,48.06L615.68,139.68L617.54,121.83L619.4,108.36L621.25,70.487L623.11,136.67L624.97,134.41L626.83,124.39L628.68,48.06L630.54,48.06L632.4,123.22L634.25,48.06L636.11,81.717L637.97,122.43L639.83,131.76L641.68,97.267L643.54,48.06L645.4,48.06L647.26,48.06L649.11,138.99L650.97,50.748L652.83,77.781L654.68,48.06L656.54,48.06L658.4,72.435L660.26,138.32L662.11,135.82L663.97,48.06L665.83,86.018L667.69,104.11L669.54,148.69L671.4,93.416L673.26,48.06L675.11,48.06L676.97,90.078L678.83,120.18L680.69,105.71L682.54,48.06L684.4,80.829L686.26,170.86L688.12,110.12L689.97,48.06L691.83,48.06L693.69,48.06L695.54,48.06L697.4,97.138L699.26,141.73L701.12,48.06L702.97,81.965L704.83,108.22L706.69,48.06L708.55,48.06L710.4,48.06L712.26,240.21L714.12,94.163L715.97,115.94L717.83,113.78L719.69,127.04L721.55,48.06L723.4,64.854L725.26,62.902L727.12,48.06L728.98,48.06L730.83,160.91L732.69,118.82L734.55,48.06L736.4,92.404L738.26,112.19L740.12,132.95L741.98,138.06L743.83,83.631L745.69,75.714L747.55,48.06L749.41,48.06L751.26,48.06L753.12,48.06L754.98,154.98L756.83,48.06L758.69,81.923L760.55,105.96L762.41,154.09L764.26,96.977L766.12,48.06L767.98,98.333L769.84,102.76L771.69,48.06L773.55,109.17L775.41,108.66L777.26,48.06L779.12,48.06L780.98,101.5L782.84,125.17L784.69,115.9L786.55,48.06L788.41,101.05L790.27,124.23L792.12,48.06L793.98,48.06L795.84,105.24L797.69,48.06L799.55,48.06L801.41,184.96L803.27,117.31L805.12,118.61L806.98,134.33L808.84,48.06L810.7,71.06L812.55,85.591L814.41,48.06L816.27,227.38L818.12,121.47L819.98,48.06L821.84,48.06L823.7,125.5L825.55,97.362L827.41,121.9L829.27,48.06L831.13,113.72L832.98,133.16L834.84,48.06L836.7,48.06L838.55,109.99L840.41,125.13L842.27,48.06L844.13,48.06L845.98,129.18L847.84,138.08L849.7,119.43L851.56,48.06L853.41,102.19L855.27,123.49L857.13,134.54L858.98,48.06L860.84,104.37L862.7,123.65L864.56,48.06L866.41,48.06L868.27,136.92L870.13,134.72L871.99,90.486L873.84,48.06L875.7,123.22L877.56,134.7L879.41,48.06L881.27,48.06L883.13,103.78L884.99,164.1L886.84,48.06L888.7,48.06L890.56,48.06L892.42,124.98L894.27,107.88L896.13,162.01L897.99,48.06L899.84,102.88L901.7,121.21L903.56,48.06L905.42,48.06L907.27,48.06L909.13,109.83L910.99,151.19L912.85,48.06L914.7,105.02L916.56,118.7L918.42,123.76L920.27,48.06L922.13,48.06L923.99,136.09L925.85,106.1L927.7,48.06L929.56,48.06L931.42,48.06L933.28,191.38L935.13,48.06L936.99,172.87L938.85,107.76L940.7,155.16L942.56,124.68L944.42,48.06L946.28,84.883L948.13,114.83L949.99,48.06L951.85,48.06L953.71,48.06L955.56,162.16L957.42,48.06L959.28,107.39L961.13,118.94L962.99,109.78L964.85,145.76L966.71,48.06L968.56,48.06L970.42,116.87L972.28,96.7L974.14,48.06L975.99,48.06L977.85,112.5L979.71,144.36L981.56,48.06L983.42,48.06L985.28,118.96L987.14,116.32L988.99,92.235L990.85,48.06L992.71,98.487L994.57,105.1L996.42,48.06L998.28,48.06L1000.1,99.747L1002,86.839L1003.9,48.06L1005.7,95.385L1007.6,107.17L1009.4,132.62L1011.3,111.6L1013.1,48.06L1015,119.89L1016.9,147.99L1018.7,48.06L1020.6,48.06L1022.4,100.51L1024.3,145.66L1026.1,48.06L1028,48.06L1029.9,48.06L1031.7,115.46L1033.6,105.04L1035.4,116.14L1037.3,48.06L1039.1,94.159L1041,48.06L1042.9,48.06L1044.7,48.06L1046.6,151.93L1048.4,48.06L1050.3,48.06L1052.1,96.503L1054,99.635L1055.9,117.18L1057.7,90.75L1059.6,48.06L1061.4,138.58L1063.3,133.61L1065.1,48.06L1067,48.06L1068.9,48.06L1070.7,48.06L1072.6,158.09L1074.4,48.06L1076.3,48.06L1078.1,161.62L1080,144.93" style="fill:none;stroke:#5A9BD4;stroke-width:1.875;stroke-dasharray:2.5,2.5" />
<path d="M1055,693.4L1080,693.4" style="fill:none;stroke:#F15A60;stroke-width:1.875" />
<text x="795.68" y="-686.35" transform="scale(1, -1)"
	style="font-family:Helvetica;font-weight:normal;font-style:normal;font-size:12pt">Zookeeper v3.4.8 (Java 8, Snap 100k)</text>
<path d="M1055,678.7L1080,678.7" style="fill:none;stroke:#7AC36A;stroke-width:1.875;stroke-dasharray:7.5,2.5" />
<text x="944.13" y="-671.65" transform="scale(1, -1)"
	style="font-family:Helvetica;font-weight:normal;font-style:normal;font-size:12pt">etcd v3 (Go Tip)</text>
<path d="M1055,664L1080,664" style="fill:none;stroke:#5A9BD4;stroke-width:1.875;stroke-dasharray:2.5,2.5" />
<text x="943.28" y="-656.95" transform="scale(1, -1)"
	style="font-family:Helvetica;font-weight:normal;font-style:normal;font-size:12pt">etcd v2 (Go 1.4)</text>
</g>
</svg>
