<?xml version="1.0"?>
<!-- Generated by SVGo and Plotinum VG -->
<svg width="12in" height="8in"
	xmlns="http://www.w3.org/2000/svg"
	xmlns:xlink="http://www.w3.org/1999/xlink">
<g transform="scale(1, -1) translate(0, -720)">
<path d="M0,0L1080,0L1080,720L0,720Z" style="fill:#FFFFFF" />
<text x="253.18" y="-705.6" transform="scale(1, -1)"
	style="font-family:Helvetica;font-weight:normal;font-style:normal;font-size:12pt">Write 2M keys, 1000-client (etcd v3 100-conn), 8-byte key, 256-byte value, Throughput</text>
<text x="552.11" y="-4.8486" transform="scale(1, -1)"
	style="font-family:Helvetica;font-weight:normal;font-style:normal;font-size:12pt">Second</text>
<text x="71.609" y="-19.498" transform="scale(1, -1)"
	style="font-family:Helvetica;font-weight:normal;font-style:normal;font-size:10pt">0</text>
<text x="249.05" y="-19.498" transform="scale(1, -1)"
	style="font-family:Helvetica;font-weight:normal;font-style:normal;font-size:10pt">100</text>
<text x="433.43" y="-19.498" transform="scale(1, -1)"
	style="font-family:Helvetica;font-weight:normal;font-style:normal;font-size:10pt">200</text>
<text x="617.82" y="-19.498" transform="scale(1, -1)"
	style="font-family:Helvetica;font-weight:normal;font-style:normal;font-size:10pt">300</text>
<text x="802.21" y="-19.498" transform="scale(1, -1)"
	style="font-family:Helvetica;font-weight:normal;font-style:normal;font-size:10pt">400</text>
<text x="986.6" y="-19.498" transform="scale(1, -1)"
	style="font-family:Helvetica;font-weight:normal;font-style:normal;font-size:10pt">500</text>
<path d="M75.085,31.498L75.085,41.498" style="fill:none;stroke:#000000;stroke-width:0.625" />
<path d="M259.47,31.498L259.47,41.498" style="fill:none;stroke:#000000;stroke-width:0.625" />
<path d="M443.86,31.498L443.86,41.498" style="fill:none;stroke:#000000;stroke-width:0.625" />
<path d="M628.25,31.498L628.25,41.498" style="fill:none;stroke:#000000;stroke-width:0.625" />
<path d="M812.64,31.498L812.64,41.498" style="fill:none;stroke:#000000;stroke-width:0.625" />
<path d="M997.03,31.498L997.03,41.498" style="fill:none;stroke:#000000;stroke-width:0.625" />
<path d="M167.28,36.498L167.28,41.498" style="fill:none;stroke:#000000;stroke-width:0.625" />
<path d="M351.67,36.498L351.67,41.498" style="fill:none;stroke:#000000;stroke-width:0.625" />
<path d="M536.06,36.498L536.06,41.498" style="fill:none;stroke:#000000;stroke-width:0.625" />
<path d="M720.44,36.498L720.44,41.498" style="fill:none;stroke:#000000;stroke-width:0.625" />
<path d="M904.83,36.498L904.83,41.498" style="fill:none;stroke:#000000;stroke-width:0.625" />
<path d="M75.085,41.498L1080,41.498" style="fill:none;stroke:#000000;stroke-width:0.625" />
<g transform="rotate(90)">
<text x="336.05" y="14.399" transform="scale(1, -1)"
	style="font-family:Helvetica;font-weight:normal;font-style:normal;font-size:12pt">Throughput</text>
</g>
<text x="47.404" y="-42.186" transform="scale(1, -1)"
	style="font-family:Helvetica;font-weight:normal;font-style:normal;font-size:10pt">0</text>
<text x="19.248" y="-185.29" transform="scale(1, -1)"
	style="font-family:Helvetica;font-weight:normal;font-style:normal;font-size:10pt">1e+04</text>
<text x="19.248" y="-328.4" transform="scale(1, -1)"
	style="font-family:Helvetica;font-weight:normal;font-style:normal;font-size:10pt">2e+04</text>
<text x="19.248" y="-471.5" transform="scale(1, -1)"
	style="font-family:Helvetica;font-weight:normal;font-style:normal;font-size:10pt">3e+04</text>
<text x="19.248" y="-614.61" transform="scale(1, -1)"
	style="font-family:Helvetica;font-weight:normal;font-style:normal;font-size:10pt">4e+04</text>
<path d="M57.828,48.06L67.828,48.06" style="fill:none;stroke:#000000;stroke-width:0.625" />
<path d="M57.828,191.17L67.828,191.17" style="fill:none;stroke:#000000;stroke-width:0.625" />
<path d="M57.828,334.27L67.828,334.27" style="fill:none;stroke:#000000;stroke-width:0.625" />
<path d="M57.828,477.38L67.828,477.38" style="fill:none;stroke:#000000;stroke-width:0.625" />
<path d="M57.828,620.48L67.828,620.48" style="fill:none;stroke:#000000;stroke-width:0.625" />
<path d="M62.828,119.61L67.828,119.61" style="fill:none;stroke:#000000;stroke-width:0.625" />
<path d="M62.828,262.72L67.828,262.72" style="fill:none;stroke:#000000;stroke-width:0.625" />
<path d="M62.828,405.83L67.828,405.83" style="fill:none;stroke:#000000;stroke-width:0.625" />
<path d="M62.828,548.93L67.828,548.93" style="fill:none;stroke:#000000;stroke-width:0.625" />
<path d="M62.828,692.04L67.828,692.04" style="fill:none;stroke:#000000;stroke-width:0.625" />
<path d="M67.828,48.06L67.828,700.75" style="fill:none;stroke:#000000;stroke-width:0.625" />
<path d="M75.085,267.34L76.929,374.36L78.773,326.7L80.617,596.83L82.461,582.49L84.305,621.89L86.149,585.71L87.993,603.02L89.836,629.43L91.68,653.9L93.524,439.04L95.368,436.25L97.212,283.96L99.056,640.5L100.9,609.78L102.74,638.37L104.59,265.5L106.43,445.37L108.28,688.8L110.12,460.11L111.96,119.66L113.81,650.28L115.65,640.65L117.49,620.74L119.34,570.02L121.18,654.87L123.03,545.8L124.87,700.75L126.71,601.34L128.56,48.06L130.4,360.49L132.25,48.06L134.09,247.69L135.93,648.5L137.78,576.44L139.62,597.77L141.47,421.38L143.31,607.43L145.15,151.74L147,76.71L148.84,76.753L150.68,62.385L152.53,48.06L154.37,62.371L156.22,48.118L158.06,48.06L159.9,48.06L161.75,48.06L163.59,48.06L165.44,48.06L167.28,48.06L169.12,48.06L170.97,48.06L172.81,48.06L174.65,48.06L176.5,48.06L178.34,48.06L180.19,48.06L182.03,48.06L183.87,48.06L185.72,57.677L187.56,640.93L189.41,623.69L191.25,585.84L193.09,597.47L194.94,582.03L196.78,633.88L198.63,674.96L200.47,64.704L202.31,109.11L204.16,48.06L206,48.06L207.84,48.06L209.69,48.06L211.53,48.06L213.38,48.06L215.22,48.06L217.06,48.06L218.91,97.003L220.75,460.21L222.6,48.06L224.44,362.94L226.28,469.81L228.13,554.48L229.97,574.35L231.82,628.61L233.66,96.23L235.5,48.06L237.35,431.2L239.19,576.54L241.03,627.54L242.88,659.17L244.72,550.09L246.57,357.47L248.41,231.36L250.25,76.71L252.1,48.06L253.94,62.371L255.79,48.06L257.63,48.146L259.47,48.06L261.32,48.06L263.16,48.06L265.01,48.06L266.85,48.06L268.69,48.06L270.54,48.06L272.38,48.06L274.22,48.06L276.07,48.06L277.91,48.06L279.76,48.06L281.6,48.06L283.44,48.06L285.29,48.06L287.13,48.06L288.98,48.06L290.82,48.06L292.66,48.06L294.51,48.06L296.35,48.06L298.19,48.06L300.04,48.06L301.88,48.06L303.73,48.06L305.57,48.06L307.41,48.06L309.26,48.06L311.1,48.06L312.95,48.06L314.79,48.06L316.63,48.06L318.48,48.06L320.32,48.06L322.17,320.76L324.01,457.34L325.85,300.37" style="fill:none;stroke:#F15A60;stroke-width:1.875" />
<path d="M75.085,355.44L76.929,645.74L78.773,555.77L80.617,606.06L82.461,579.56L84.305,594.85L86.149,585.38L87.993,580.73L89.836,576.49L91.68,569.57L93.524,573.19L95.368,575.99L97.212,570.3L99.056,586.64L100.9,562.63L102.74,576.99L104.59,557.06L106.43,587.51L108.28,586.68L110.12,564.33L111.96,584.01L113.81,575.33L115.65,550.45L117.49,551.94L119.34,574.52L121.18,554.97L123.03,539.11L124.87,556.73L126.71,527.35L128.56,500.72L130.4,572.84L132.25,550.2L134.09,490.79L135.93,602.08L137.78,571.76L139.62,546.51L141.47,522.59L143.31,546.56L145.15,569.78L147,557.93L148.84,551.86L150.68,579.94L152.53,576.85L154.37,554.98L156.22,536.97L158.06,551.71L159.9,562.07L161.75,578.48L163.59,534.66L165.44,532.73L167.28,554.05L169.12,529.64L170.97,522.41L172.81,622.92L174.65,540.47L176.5,509.83" style="fill:none;stroke:#7AC36A;stroke-width:1.875;stroke-dasharray:7.5,2.5" />
<path d="M75.085,57.777L76.929,69.626L78.773,80.145L80.617,76.266L82.461,75.136L84.305,75.966L86.149,85.01L87.993,68.338L89.836,81.003L91.68,85.568L93.524,65.19L95.368,85.468L97.212,73.576L99.056,86.813L100.9,71.315L102.74,74.936L104.59,79.458L106.43,63.516L108.28,83.064L110.12,75.25L111.96,63.516L113.81,65.419L115.65,68.753L117.49,66.593L119.34,74.735L121.18,65.705L123.03,68.567L124.87,74.521L126.71,75.222L128.56,82.935L130.4,69.125L132.25,63.072L134.09,62.027L135.93,74.735L137.78,75.809L139.62,78.127L141.47,69.383L143.31,67.694L145.15,59.852L147,77.111L148.84,71.472L150.68,71.959L152.53,78.155L154.37,71.458L156.22,58.536L158.06,62.271L159.9,64.002L161.75,82.735L163.59,71.83L165.44,73.619L167.28,66.034L169.12,57.534L170.97,87.872L172.81,70.657L174.65,68.625L176.5,83.608L178.34,49.491L180.19,64.575L182.03,77.54L183.87,79.3L185.72,72.274L187.56,61.841L189.41,64.045L191.25,69.455L193.09,78.485L194.94,68.195L196.78,65.061L198.63,49.563L200.47,66.478L202.31,69.44L204.16,69.698L206,80.188L207.84,63.945L209.69,48.06L211.53,80.703L213.38,66.149L215.22,76.367L217.06,65.548L218.91,55.631L220.75,50.837L222.6,69.526L224.44,57.434L226.28,79.386L228.13,79.272L229.97,77.497L231.82,62.4L233.66,48.06L235.5,61.484L237.35,48.06L239.19,64.417L241.03,86.284L242.88,80.159L244.72,76.324L246.57,48.06L248.41,56.189L250.25,65.433L252.1,78.928L253.94,63.029L255.79,65.734L257.63,62.056L259.47,48.06L261.32,64.317L263.16,49.62L265.01,56.031L266.85,73.605L268.69,77.211L270.54,67.651L272.38,75.122L274.22,51.81L276.07,48.06L277.91,52.826L279.76,48.504L281.6,72.617L283.44,77.669L285.29,77.683L287.13,70.013L288.98,48.06L290.82,60.711L292.66,52.139L294.51,51.523L296.35,73.648L298.19,69.297L300.04,82.763L301.88,67.809L303.73,48.06L305.57,52.983L307.41,50.307L309.26,54.801L311.1,58.593L312.95,67.279L314.79,82.506L316.63,66.564L318.48,73.361L320.32,60.038L322.17,48.06L324.01,52.826L325.85,48.06L327.7,58.622L329.54,91.894L331.38,67.351L333.23,64.789L335.07,75.966L336.92,48.06L338.76,51.638L340.6,52.826L342.45,48.06L344.29,53.913L346.14,85.153L347.98,75.751L349.82,69.526L351.67,62.299L353.51,48.06L355.36,48.06L357.2,48.06L359.04,52.826L360.89,48.06L362.73,48.06L364.57,58.693L366.42,70.628L368.26,69.369L370.11,66.321L371.95,63.358L373.79,48.06L375.64,48.06L377.48,48.06L379.33,64.932L381.17,48.06L383.01,48.06L384.86,68.954L386.7,69.827L388.55,48.06L390.39,70.27L392.23,79.172L394.08,48.06L395.92,48.06L397.76,48.518L399.61,81.876L401.45,76.996L403.3,69.34L405.14,48.06L406.98,48.06L408.83,48.06L410.67,52.096L412.52,48.06L414.36,60.053L416.2,80.917L418.05,62.414L419.89,78.728L421.73,62.6L423.58,48.06L425.42,48.06L427.27,48.06L429.11,52.711L430.95,48.06L432.8,63.573L434.64,70.514L436.49,76.596L438.33,68.768L440.17,65.448L442.02,48.06L443.86,48.06L445.71,48.06L447.55,58.779L449.39,48.06L451.24,60.768L453.08,79.358L454.92,81.504L456.77,74.263L458.61,48.06L460.46,48.06L462.3,57.777L464.14,48.06L465.99,56.675L467.83,75.436L469.68,61.913L471.52,79.214L473.36,48.06L475.21,48.06L477.05,48.06L478.9,48.06L480.74,53.87L482.58,48.06L484.43,48.06L486.27,48.06L488.11,55.688L489.96,71.415L491.8,51.967L493.65,49.463L495.49,48.06L497.33,69.583L499.18,68.338L501.02,48.89L502.87,55.888L504.71,59.838L506.55,68.381L508.4,63.086L510.24,57.205L512.08,48.06L513.93,52.84L515.77,48.06L517.62,48.06L519.46,75.637L521.3,48.06L523.15,70.757L524.99,66.02L526.84,60.11L528.68,68.109L530.52,48.06L532.37,53.155L534.21,48.06L536.06,52.826L537.9,70.442L539.74,52.811L541.59,52.11L543.43,79.343L545.27,69.769L547.12,72.703L548.96,48.075L550.81,56.818L552.65,57.877L554.49,57.233L556.34,48.561L558.18,48.06L560.03,66.22L561.87,76.753L563.71,64.661L565.56,48.06L567.4,59.838L569.25,48.06L571.09,50.908L572.93,74.907L574.78,48.06L576.62,74.75L578.46,72.66L580.31,69.326L582.15,65.219L584,48.06L585.84,48.06L587.68,48.06L589.53,48.06L591.37,52.84L593.22,48.06L595.06,48.06L596.9,48.06L598.75,52.84L600.59,76.209L602.44,66.607L604.28,56.074L606.12,48.232L607.97,66.278L609.81,76.567L611.65,49.534L613.5,51.094L615.34,48.06L617.19,48.06L619.03,56.546L620.87,74.206L622.72,57.148L624.56,51.924L626.41,66.907L628.25,66.249L630.09,54.271L631.94,48.06L633.78,48.06L635.62,55.702L637.47,48.06L639.31,76.038L641.16,68.796L643,70.413L644.84,49.005L646.69,48.06L648.53,48.06L650.38,48.06L652.22,65.949L654.06,48.075L655.91,60.596L657.75,48.06L659.6,48.06L661.44,50.164L663.28,65.705L665.13,62.872L666.97,48.06L668.81,61.026L670.66,84.152L672.5,51.28L674.35,52.826L676.19,48.06L678.03,48.06L679.88,50.837L681.72,65.362L683.57,72.36L685.41,48.06L687.25,58.951L689.1,61.756L690.94,52.84L692.79,48.06L694.63,48.06L696.47,48.06L698.32,48.06L700.16,56.632L702,71.53L703.85,48.06L705.69,60.053L707.54,58.622L709.38,48.06L711.22,48.06L713.07,48.06L714.91,48.905L716.76,54.014L718.6,68.353L720.44,70.8L722.29,75.365L724.13,48.06L725.98,60.568L727.82,58.579L729.66,48.06L731.51,48.06L733.35,52.84L735.19,66.22L737.04,48.06L738.88,70.342L740.73,75.322L742.57,62.199L744.41,55.287L746.26,54.657L748.1,61.369L749.95,48.06L751.79,48.06L753.63,48.06L755.48,48.06L757.32,57.233L759.16,48.06L761.01,68.782L762.85,74.349L764.7,65.076L766.54,52.726L768.38,48.06L770.23,62.6L772.07,53.541L773.92,48.06L775.76,48.719L777.6,67.609L779.45,48.06L781.29,48.06L783.14,63.001L784.98,72.417L786.82,70.127L788.67,48.06L790.51,50.608L792.35,71.601L794.2,48.06L796.04,48.06L797.89,70.313L799.73,48.06L801.57,48.06L803.42,48.59L805.26,75.837L807.11,79.386L808.95,51.566L810.79,48.06L812.64,60.196L814.48,59.323L816.33,48.06L818.17,52.826L820.01,72.975L821.86,48.06L823.7,48.06L825.54,66.278L827.39,83.894L829.23,57.534L831.08,48.06L832.92,64.832L834.76,61.355L836.61,48.06L838.45,48.06L840.3,64.789L842.14,54.014L843.98,48.06L845.83,48.06L847.67,64.36L849.52,68.009L851.36,69.483L853.2,48.06L855.05,62.128L856.89,57.133L858.73,49.434L860.58,48.06L862.42,71.329L864.27,53.87L866.11,48.06L867.95,48.06L869.8,66.564L871.64,61.627L873.49,68.167L875.33,48.06L877.17,62.056L879.02,63.859L880.86,48.06L882.7,48.06L884.55,64.904L886.39,50.565L888.24,48.06L890.08,48.06L891.92,48.06L893.77,72.374L895.61,76.882L897.46,54.615L899.3,48.06L901.14,62.4L902.99,59.967L904.83,48.06L906.68,48.06L908.52,48.06L910.36,57.448L912.21,48.976L914.05,48.06L915.89,73.218L917.74,67.408L919.58,71.716L921.43,48.06L923.27,48.06L925.11,65.605L926.96,52.411L928.8,48.06L930.65,48.06L932.49,48.06L934.33,52.826L936.18,48.06L938.02,57.09L939.87,74.549L941.71,66.664L943.55,66.235L945.4,48.06L947.24,75.494L949.08,50.851L950.93,48.06L952.77,48.06L954.62,48.06L956.46,55.173L958.3,48.06L960.15,55.201L961.99,66.521L963.84,76.753L965.68,59.122L967.52,48.06L969.37,48.06L971.21,64.417L973.05,57.505L974.9,48.06L976.74,48.06L978.59,63.086L980.43,53.298L982.27,48.06L984.12,48.06L985.96,69.326L987.81,73.304L989.65,66.292L991.49,48.06L993.34,67.523L995.18,55.001L997.03,48.06L998.87,48.06L1000.7,56.461L1002.6,60.053L1004.4,48.06L1006.2,67.723L1008.1,69.884L1009.9,71.043L1011.8,54.901L1013.6,48.06L1015.5,57.777L1017.3,63.587L1019.2,48.06L1021,48.06L1022.8,50.293L1024.7,57.978L1026.5,48.06L1028.4,48.06L1030.2,48.06L1032.1,61.555L1033.9,71.387L1035.7,60.453L1037.6,48.06L1039.4,68.496L1041.3,48.06L1043.1,48.06L1045,48.06L1046.8,51.738L1048.7,48.06L1050.5,48.06L1052.3,58.264L1054.2,65.963L1056,81.075L1057.9,57.119L1059.7,48.06L1061.6,60.482L1063.4,64.575L1065.2,48.06L1067.1,48.06L1068.9,48.06L1070.8,48.06L1072.6,52.726L1074.5,48.06L1076.3,48.06L1078.2,57.605L1080,65.619" style="fill:none;stroke:#5A9BD4;stroke-width:1.875;stroke-dasharray:2.5,2.5" />
<path d="M1055,693.4L1080,693.4" style="fill:none;stroke:#F15A60;stroke-width:1.875" />
<text x="795.68" y="-686.35" transform="scale(1, -1)"
	style="font-family:Helvetica;font-weight:normal;font-style:normal;font-size:12pt">Zookeeper v3.4.8 (Java 8, Snap 100k)</text>
<path d="M1055,678.7L1080,678.7" style="fill:none;stroke:#7AC36A;stroke-width:1.875;stroke-dasharray:7.5,2.5" />
<text x="944.13" y="-671.65" transform="scale(1, -1)"
	style="font-family:Helvetica;font-weight:normal;font-style:normal;font-size:12pt">etcd v3 (Go Tip)</text>
<path d="M1055,664L1080,664" style="fill:none;stroke:#5A9BD4;stroke-width:1.875;stroke-dasharray:2.5,2.5" />
<text x="943.28" y="-656.95" transform="scale(1, -1)"
	style="font-family:Helvetica;font-weight:normal;font-style:normal;font-size:12pt">etcd v2 (Go 1.4)</text>
</g>
</svg>
