<?xml version="1.0"?>
<!-- Generated by SVGo and Plotinum VG -->
<svg width="12in" height="8in"
	xmlns="http://www.w3.org/2000/svg"
	xmlns:xlink="http://www.w3.org/1999/xlink">
<g transform="scale(1, -1) translate(0, -720)">
<path d="M0,0L1080,0L1080,720L0,720Z" style="fill:#FFFFFF" />
<text x="253.18" y="-705.6" transform="scale(1, -1)"
	style="font-family:Helvetica;font-weight:normal;font-style:normal;font-size:12pt">Write 2M keys, 1000-client (etcd v3 100-conn), 8-byte key, 256-byte value, Throughput</text>
<text x="552.11" y="-4.8486" transform="scale(1, -1)"
	style="font-family:Helvetica;font-weight:normal;font-style:normal;font-size:12pt">Second</text>
<text x="71.609" y="-19.498" transform="scale(1, -1)"
	style="font-family:Helvetica;font-weight:normal;font-style:normal;font-size:10pt">0</text>
<text x="382.17" y="-19.498" transform="scale(1, -1)"
	style="font-family:Helvetica;font-weight:normal;font-style:normal;font-size:10pt">20</text>
<text x="696.21" y="-19.498" transform="scale(1, -1)"
	style="font-family:Helvetica;font-weight:normal;font-style:normal;font-size:10pt">40</text>
<text x="1010.2" y="-19.498" transform="scale(1, -1)"
	style="font-family:Helvetica;font-weight:normal;font-style:normal;font-size:10pt">60</text>
<path d="M75.085,31.498L75.085,41.498" style="fill:none;stroke:#000000;stroke-width:0.625" />
<path d="M389.12,31.498L389.12,41.498" style="fill:none;stroke:#000000;stroke-width:0.625" />
<path d="M703.16,31.498L703.16,41.498" style="fill:none;stroke:#000000;stroke-width:0.625" />
<path d="M1017.2,31.498L1017.2,41.498" style="fill:none;stroke:#000000;stroke-width:0.625" />
<path d="M232.1,36.498L232.1,41.498" style="fill:none;stroke:#000000;stroke-width:0.625" />
<path d="M546.14,36.498L546.14,41.498" style="fill:none;stroke:#000000;stroke-width:0.625" />
<path d="M860.17,36.498L860.17,41.498" style="fill:none;stroke:#000000;stroke-width:0.625" />
<path d="M75.085,41.498L1080,41.498" style="fill:none;stroke:#000000;stroke-width:0.625" />
<g transform="rotate(90)">
<text x="336.05" y="14.399" transform="scale(1, -1)"
	style="font-family:Helvetica;font-weight:normal;font-style:normal;font-size:12pt">Throughput</text>
</g>
<text x="19.248" y="-89.347" transform="scale(1, -1)"
	style="font-family:Helvetica;font-weight:normal;font-style:normal;font-size:10pt">1e+04</text>
<text x="19.248" y="-279.98" transform="scale(1, -1)"
	style="font-family:Helvetica;font-weight:normal;font-style:normal;font-size:10pt">2e+04</text>
<text x="19.248" y="-470.6" transform="scale(1, -1)"
	style="font-family:Helvetica;font-weight:normal;font-style:normal;font-size:10pt">3e+04</text>
<text x="19.248" y="-661.23" transform="scale(1, -1)"
	style="font-family:Helvetica;font-weight:normal;font-style:normal;font-size:10pt">4e+04</text>
<path d="M57.828,95.222L67.828,95.222" style="fill:none;stroke:#000000;stroke-width:0.625" />
<path d="M57.828,285.85L67.828,285.85" style="fill:none;stroke:#000000;stroke-width:0.625" />
<path d="M57.828,476.48L67.828,476.48" style="fill:none;stroke:#000000;stroke-width:0.625" />
<path d="M57.828,667.11L67.828,667.11" style="fill:none;stroke:#000000;stroke-width:0.625" />
<path d="M62.828,190.54L67.828,190.54" style="fill:none;stroke:#000000;stroke-width:0.625" />
<path d="M62.828,381.16L67.828,381.16" style="fill:none;stroke:#000000;stroke-width:0.625" />
<path d="M62.828,571.79L67.828,571.79" style="fill:none;stroke:#000000;stroke-width:0.625" />
<path d="M67.828,48.06L67.828,700.75" style="fill:none;stroke:#000000;stroke-width:0.625" />
<path d="M75.085,314.04L90.787,700.75L106.49,580.9L122.19,647.89L137.89,612.59L153.59,632.96L169.3,620.35L185,614.15L200.7,608.51L216.4,599.28L232.1,604.1L247.81,607.84L263.51,600.25L279.21,622.02L294.91,590.04L310.61,609.17L326.31,582.62L342.02,623.19L357.72,622.08L373.42,592.3L389.12,618.51L404.82,606.96L420.52,573.81L436.23,575.8L451.93,605.88L467.63,579.84L483.33,558.71L499.03,582.18L514.74,543.05L530.44,507.57L546.14,603.65L561.84,573.49L577.54,494.34L593.24,642.59L608.95,602.2L624.65,568.57L640.35,536.7L656.05,568.63L671.75,599.57L687.46,583.78L703.16,575.7L718.86,613.1L734.56,608.98L750.26,579.86L765.96,555.86L781.67,575.49L797.37,589.29L813.07,611.16L828.77,552.79L844.47,550.21L860.17,578.62L875.88,546.1L891.58,536.47L907.28,670.35L922.98,560.53L938.68,519.71" style="fill:none;stroke:#F15A60;stroke-width:1.875" />
<path d="M75.085,48.06L90.787,631.8L106.49,583.13L122.19,550.98L137.89,557.38L153.59,533.3L169.3,545.56L185,522.48L200.7,547.35L216.4,503.64L232.1,510.87L247.81,539.92L263.51,519.01L279.21,517.86L294.91,527.11L310.61,518.19L326.31,537.63L342.02,491.69L357.72,518.63L373.42,517.94L389.12,519.22L404.82,512.28L420.52,520.04L436.23,493.23L451.93,478.73L467.63,490.13L483.33,497.71L499.03,549.16L514.74,480.84L530.44,509.3L546.14,507.91L561.84,466.41L577.54,532.12L593.24,544.93L608.95,452.12L624.65,529.17L640.35,540.05L656.05,526.16L671.75,500.9L687.46,506.96L703.16,471.81L718.86,547.54L734.56,517.23L750.26,520.04L765.96,498.27L781.67,502.19L797.37,504.58L813.07,515.92L828.77,497.62L844.47,554.16L860.17,536.32L875.88,490.97L891.58,462.58L907.28,540.24L922.98,473.43L938.68,509.99L954.39,616.74L970.09,475.14L985.79,519.2L1001.5,470.85L1017.2,492.97L1032.9,617.75" style="fill:none;stroke:#7AC36A;stroke-width:1.875;stroke-dasharray:7.5,2.5" />
<path d="M75.085,115.49L90.787,665.43L106.49,619.03L122.19,525.37L137.89,520.13L153.59,535.5L169.3,474.59L185,505.95L200.7,519.37L216.4,516.01L232.1,520.8L247.81,505.78L263.51,525.47L279.21,456.37L294.91,480.96L310.61,474.32L326.31,482.1L342.02,493.22L357.72,496.32L373.42,490.72L389.12,486.3L404.82,479.36L420.52,480.31L436.23,504.77L451.93,499.79L467.63,473.03L483.33,511.15L499.03,394.37L514.74,549.89L530.44,435.23L546.14,508.77L561.84,500.55L577.54,421.35L593.24,492.89L608.95,492.57L624.65,484.24L640.35,436.67L656.05,498.74L671.75,498.36L687.46,487.53L703.16,485.78L718.86,486.26L734.56,494.91L750.26,451.94L765.96,450.71L781.67,505.49L797.37,465.94L813.07,420.26L828.77,432.9L844.47,528.52L860.17,448.53L875.88,515.84L891.58,459.99L907.28,516.61L922.98,472.74L938.68,467.1L954.39,479.07L970.09,502.21L985.79,532.75L1001.5,489.42L1017.2,450.99L1032.9,497.56L1048.6,596.38L1064.3,455.74L1080,471.1" style="fill:none;stroke:#5A9BD4;stroke-width:1.875;stroke-dasharray:2.5,2.5" />
<path d="M1055,693.4L1080,693.4" style="fill:none;stroke:#F15A60;stroke-width:1.875" />
<text x="944.13" y="-686.35" transform="scale(1, -1)"
	style="font-family:Helvetica;font-weight:normal;font-style:normal;font-size:12pt">etcd v3 (Go Tip)</text>
<path d="M1055,678.7L1080,678.7" style="fill:none;stroke:#7AC36A;stroke-width:1.875;stroke-dasharray:7.5,2.5" />
<text x="943.28" y="-671.65" transform="scale(1, -1)"
	style="font-family:Helvetica;font-weight:normal;font-style:normal;font-size:12pt">etcd v3 (Go 1.6)</text>
<path d="M1055,664L1080,664" style="fill:none;stroke:#5A9BD4;stroke-width:1.875;stroke-dasharray:2.5,2.5" />
<text x="943.28" y="-656.95" transform="scale(1, -1)"
	style="font-family:Helvetica;font-weight:normal;font-style:normal;font-size:12pt">etcd v3 (Go 1.5)</text>
</g>
</svg>
