<?xml version="1.0"?>
<!-- Generated by SVGo and Plotinum VG -->
<svg width="12in" height="8in"
	xmlns="http://www.w3.org/2000/svg"
	xmlns:xlink="http://www.w3.org/1999/xlink">
<g transform="scale(1, -1) translate(0, -720)">
<path d="M0,0L1080,0L1080,720L0,720Z" style="fill:#FFFFFF" />
<text x="220.96" y="-705.6" transform="scale(1, -1)"
	style="font-family:Helvetica;font-weight:normal;font-style:normal;font-size:12pt">Write 2M keys, 1000-client, 100-conn, 8-byte key, 256-byte value (etcd v3), Latency(millisecond)</text>
<text x="541.5" y="-4.8486" transform="scale(1, -1)"
	style="font-family:Helvetica;font-weight:normal;font-style:normal;font-size:12pt">Second</text>
<text x="50.406" y="-19.498" transform="scale(1, -1)"
	style="font-family:Helvetica;font-weight:normal;font-style:normal;font-size:10pt">0</text>
<text x="340.11" y="-19.498" transform="scale(1, -1)"
	style="font-family:Helvetica;font-weight:normal;font-style:normal;font-size:10pt">20</text>
<text x="633.28" y="-19.498" transform="scale(1, -1)"
	style="font-family:Helvetica;font-weight:normal;font-style:normal;font-size:10pt">40</text>
<text x="926.46" y="-19.498" transform="scale(1, -1)"
	style="font-family:Helvetica;font-weight:normal;font-style:normal;font-size:10pt">60</text>
<path d="M53.882,31.498L53.882,41.498" style="fill:none;stroke:#000000;stroke-width:0.625" />
<path d="M347.06,31.498L347.06,41.498" style="fill:none;stroke:#000000;stroke-width:0.625" />
<path d="M640.24,31.498L640.24,41.498" style="fill:none;stroke:#000000;stroke-width:0.625" />
<path d="M933.41,31.498L933.41,41.498" style="fill:none;stroke:#000000;stroke-width:0.625" />
<path d="M200.47,36.498L200.47,41.498" style="fill:none;stroke:#000000;stroke-width:0.625" />
<path d="M493.65,36.498L493.65,41.498" style="fill:none;stroke:#000000;stroke-width:0.625" />
<path d="M786.82,36.498L786.82,41.498" style="fill:none;stroke:#000000;stroke-width:0.625" />
<path d="M1080,36.498L1080,41.498" style="fill:none;stroke:#000000;stroke-width:0.625" />
<path d="M53.882,41.498L1080,41.498" style="fill:none;stroke:#000000;stroke-width:0.625" />
<g transform="rotate(90)">
<text x="306.05" y="14.399" transform="scale(1, -1)"
	style="font-family:Helvetica;font-weight:normal;font-style:normal;font-size:12pt">Latency(millisecond)</text>
</g>
<text x="19.248" y="-113.16" transform="scale(1, -1)"
	style="font-family:Helvetica;font-weight:normal;font-style:normal;font-size:10pt">24</text>
<text x="19.248" y="-328.75" transform="scale(1, -1)"
	style="font-family:Helvetica;font-weight:normal;font-style:normal;font-size:10pt">30</text>
<text x="19.248" y="-544.35" transform="scale(1, -1)"
	style="font-family:Helvetica;font-weight:normal;font-style:normal;font-size:10pt">36</text>
<path d="M36.625,119.03L46.625,119.03" style="fill:none;stroke:#000000;stroke-width:0.625" />
<path d="M36.625,334.63L46.625,334.63" style="fill:none;stroke:#000000;stroke-width:0.625" />
<path d="M36.625,550.23L46.625,550.23" style="fill:none;stroke:#000000;stroke-width:0.625" />
<path d="M41.625,190.9L46.625,190.9" style="fill:none;stroke:#000000;stroke-width:0.625" />
<path d="M41.625,262.76L46.625,262.76" style="fill:none;stroke:#000000;stroke-width:0.625" />
<path d="M41.625,406.49L46.625,406.49" style="fill:none;stroke:#000000;stroke-width:0.625" />
<path d="M41.625,478.36L46.625,478.36" style="fill:none;stroke:#000000;stroke-width:0.625" />
<path d="M41.625,622.09L46.625,622.09" style="fill:none;stroke:#000000;stroke-width:0.625" />
<path d="M41.625,693.96L46.625,693.96" style="fill:none;stroke:#000000;stroke-width:0.625" />
<path d="M46.625,48.06L46.625,700.75" style="fill:none;stroke:#000000;stroke-width:0.625" />
<path d="M53.882,225.53L68.541,202.36L83.199,320.53L97.858,354.79L112.52,400.89L127.18,442.91L141.83,429.57L156.49,566.15L171.15,479.82L185.81,489.71L200.47,505.9L215.13,519.12L229.79,503.69L244.45,512.98L259.11,554.56L273.76,500.28L288.42,478.68L303.08,434.27L317.74,478.84L332.4,480.32L347.06,443.75L361.72,542.25L376.38,491.31L391.03,502.98L405.69,521.14L420.35,410.84L435.01,524.78L449.67,460.43L464.33,610.32L478.99,510.71L493.65,506.38L508.31,547.02L522.96,606.04L537.62,578.57L552.28,469.95L566.94,696.69L581.6,665.56L596.26,415.34L610.92,633.36L625.58,595.12L640.24,538.14L654.89,565.53L669.55,487.48L684.21,613.37L698.87,487.77L713.53,553.51L728.19,505.82L742.85,554.95L757.51,507.45L772.16,595.8L786.82,600.09L801.48,620.98L816.14,583.6L830.8,628.57L845.46,526.14L860.12,496.07L874.78,662.69L889.44,435.01L904.09,455.59L918.75,674.68L933.41,539.15L948.07,410.74L962.73,657.77L977.39,543.47L992.05,555.07L1006.7,700.75L1021.4,612.49L1036,611.07L1050.7,637.34L1065.3,461.09L1080,683.94" style="fill:none;stroke:#F15A60;stroke-width:1.875" />
<path d="M53.882,48.06L68.541,123.43L83.199,223.53L97.858,167.94L112.52,176.35L127.18,240.3L141.83,248.07L156.49,229.1L171.15,291.3L185.81,279.34L200.47,309.04L215.13,249.53L229.79,319.28L244.45,283.48L259.11,231.91L273.76,284.96L288.42,239.63L303.08,383.9L317.74,397.26L332.4,434.01L347.06,386.39L361.72,299.59L376.38,346.61L391.03,462.08L405.69,279.39L420.35,404.84L435.01,327.73L449.67,257.55L464.33,298.74L478.99,203.31L493.65,315.45L508.31,240.06L522.96,240.24L537.62,347.62L552.28,182.33L566.94,259.62L581.6,301.63L596.26,267.68L610.92,219.98L625.58,299.32L640.24,292.17L654.89,391.62L669.55,368.89L684.21,263.81L698.87,314.34L713.53,230.51L728.19,378.28L742.85,361.63L757.51,364.35L772.16,358.85L786.82,323.53L801.48,219.84L816.14,276.58L830.8,287.8L845.46,250.63L860.12,209.55L874.78,309L889.44,336.6" style="fill:none;stroke:#7AC36A;stroke-width:1.875;stroke-dasharray:7.5,2.5" />
<path d="M1055,693.4L1080,693.4" style="fill:none;stroke:#F15A60;stroke-width:1.875" />
<text x="1002.5" y="-686.35" transform="scale(1, -1)"
	style="font-family:Helvetica;font-weight:normal;font-style:normal;font-size:12pt">etcd v3</text>
<path d="M1055,678.7L1080,678.7" style="fill:none;stroke:#7AC36A;stroke-width:1.875;stroke-dasharray:7.5,2.5" />
<text x="881.61" y="-671.65" transform="scale(1, -1)"
	style="font-family:Helvetica;font-weight:normal;font-style:normal;font-size:12pt">etcd v3 (with mvcc patch)</text>
</g>
</svg>
