<?xml version="1.0"?>
<!-- Generated by SVGo and Plotinum VG -->
<svg width="12in" height="8in"
	xmlns="http://www.w3.org/2000/svg"
	xmlns:xlink="http://www.w3.org/1999/xlink">
<g transform="scale(1, -1) translate(0, -720)">
<path d="M0,0L1080,0L1080,720L0,720Z" style="fill:#FFFFFF" />
<text x="223.05" y="-705.6" transform="scale(1, -1)"
	style="font-family:Helvetica;font-weight:normal;font-style:normal;font-size:12pt">Write 2M keys, 1000-client (etcd v3 100-conn), 8-byte key, 256-byte value, Latency(millisecond)</text>
<text x="541.5" y="-4.8486" transform="scale(1, -1)"
	style="font-family:Helvetica;font-weight:normal;font-style:normal;font-size:12pt">Second</text>
<text x="50.406" y="-19.498" transform="scale(1, -1)"
	style="font-family:Helvetica;font-weight:normal;font-style:normal;font-size:10pt">0</text>
<text x="367.59" y="-19.498" transform="scale(1, -1)"
	style="font-family:Helvetica;font-weight:normal;font-style:normal;font-size:10pt">20</text>
<text x="688.25" y="-19.498" transform="scale(1, -1)"
	style="font-family:Helvetica;font-weight:normal;font-style:normal;font-size:10pt">40</text>
<text x="1008.9" y="-19.498" transform="scale(1, -1)"
	style="font-family:Helvetica;font-weight:normal;font-style:normal;font-size:10pt">60</text>
<path d="M53.882,31.498L53.882,41.498" style="fill:none;stroke:#000000;stroke-width:0.625" />
<path d="M374.54,31.498L374.54,41.498" style="fill:none;stroke:#000000;stroke-width:0.625" />
<path d="M695.21,31.498L695.21,41.498" style="fill:none;stroke:#000000;stroke-width:0.625" />
<path d="M1015.9,31.498L1015.9,41.498" style="fill:none;stroke:#000000;stroke-width:0.625" />
<path d="M214.21,36.498L214.21,41.498" style="fill:none;stroke:#000000;stroke-width:0.625" />
<path d="M534.87,36.498L534.87,41.498" style="fill:none;stroke:#000000;stroke-width:0.625" />
<path d="M855.54,36.498L855.54,41.498" style="fill:none;stroke:#000000;stroke-width:0.625" />
<path d="M53.882,41.498L1080,41.498" style="fill:none;stroke:#000000;stroke-width:0.625" />
<g transform="rotate(90)">
<text x="306.05" y="14.399" transform="scale(1, -1)"
	style="font-family:Helvetica;font-weight:normal;font-style:normal;font-size:12pt">Latency(millisecond)</text>
</g>
<text x="19.248" y="-56.446" transform="scale(1, -1)"
	style="font-family:Helvetica;font-weight:normal;font-style:normal;font-size:10pt">24</text>
<text x="19.248" y="-232.67" transform="scale(1, -1)"
	style="font-family:Helvetica;font-weight:normal;font-style:normal;font-size:10pt">28</text>
<text x="19.248" y="-408.9" transform="scale(1, -1)"
	style="font-family:Helvetica;font-weight:normal;font-style:normal;font-size:10pt">32</text>
<text x="19.248" y="-585.13" transform="scale(1, -1)"
	style="font-family:Helvetica;font-weight:normal;font-style:normal;font-size:10pt">36</text>
<path d="M36.625,62.321L46.625,62.321" style="fill:none;stroke:#000000;stroke-width:0.625" />
<path d="M36.625,238.55L46.625,238.55" style="fill:none;stroke:#000000;stroke-width:0.625" />
<path d="M36.625,414.78L46.625,414.78" style="fill:none;stroke:#000000;stroke-width:0.625" />
<path d="M36.625,591L46.625,591" style="fill:none;stroke:#000000;stroke-width:0.625" />
<path d="M41.625,150.43L46.625,150.43" style="fill:none;stroke:#000000;stroke-width:0.625" />
<path d="M41.625,326.66L46.625,326.66" style="fill:none;stroke:#000000;stroke-width:0.625" />
<path d="M41.625,502.89L46.625,502.89" style="fill:none;stroke:#000000;stroke-width:0.625" />
<path d="M41.625,679.12L46.625,679.12" style="fill:none;stroke:#000000;stroke-width:0.625" />
<path d="M46.625,48.06L46.625,700.75" style="fill:none;stroke:#000000;stroke-width:0.625" />
<path d="M53.882,70.497L69.915,48.06L85.948,236.25L101.98,124.36L118.01,177.09L134.05,153.43L150.08,168.12L166.11,175.04L182.15,188L198.18,205.42L214.21,196.99L230.25,195.92L246.28,200.72L262.31,170.5L278.35,210.92L294.38,195.65L310.41,226.15L326.44,173.4L342.48,171.23L358.51,217.7L374.54,166.73L390.58,189.47L406.61,235.81L422.64,274.45L438.68,177.96L454.71,255.92L470.74,282.34L486.78,234.87L502.81,213.77L518.84,447.37L534.87,243.96L550.91,220.24L566.94,459.16L582.97,133.33L599.01,203.13L615.04,220.4L631.07,374.74L647.11,261.23L663.14,190.8L679.17,233.48L695.21,249.17L711.24,190.34L727.27,198.59L743.3,238.13L759.34,295.63L775.37,237.89L791.4,219.68L807.44,206.64L823.47,297.31L839.5,295.22L855.54,228.48L871.57,327.47L887.6,326.22L903.64,67.614L919.67,311.18L935.7,366.2" style="fill:none;stroke:#F15A60;stroke-width:1.875" />
<path d="M53.882,159.47L69.915,127.54L85.948,221.51L101.98,279.86L118.01,262.68L134.05,328.26L150.08,300.27L166.11,326.76L182.15,313.95L198.18,387.48L214.21,347.16L230.25,330.85L246.28,339.52L262.31,375.11L278.35,298.32L294.38,388.48L310.41,309.49L326.44,397.48L342.48,395.21L358.51,354.27L374.54,324.38L390.58,326.68L406.61,400.84L422.64,452.88L438.68,467.95L454.71,406.79L470.74,415.35L486.78,300.45L502.81,447.9L518.84,370.84L534.87,375.84L550.91,481.03L566.94,341.29L582.97,311.08L599.01,524.84L615.04,334.6L631.07,311.15L647.11,349.5L663.14,363.49L679.17,396.37L695.21,405.45L711.24,383.98L727.27,317.53L743.3,394.8L759.34,407.42L775.37,347.3L791.4,439.89L807.44,324.3L823.47,384L839.5,253.51L855.54,434.46L871.57,385.99L887.6,499.16L903.64,343.95L919.67,400.73L935.7,425.86L951.74,187.55L967.77,443.05L983.8,381.52L999.83,487.35L1015.9,237.32L1031.9,328.22" style="fill:none;stroke:#7AC36A;stroke-width:1.875;stroke-dasharray:7.5,2.5" />
<path d="M53.882,84.215L69.915,70.727L85.948,161.03L101.98,352.64L118.01,332.87L134.05,342.22L150.08,426.24L166.11,393.7L182.15,325.96L198.18,395.49L214.21,345.47L230.25,375.21L246.28,366.93L262.31,505.7L278.35,431.03L294.38,474.09L310.41,444.59L326.44,409.63L342.48,402.91L358.51,422.86L374.54,447.76L390.58,434.86L406.61,472.76L422.64,346.66L438.68,430.16L454.71,482.43L470.74,373.86L486.78,700.75L502.81,269.63L518.84,608.99L534.87,385.97L550.91,370.22L566.94,631.87L582.97,431.34L599.01,412.38L615.04,455.09L631.07,458.02L647.11,514.09L663.14,403.46L679.17,411.88L695.21,495.69L711.24,442.72L727.27,409.16L743.3,513.87L759.34,528.95L775.37,367.4L791.4,492.06L807.44,631.58L823.47,578.61L839.5,333.88L855.54,545.65L871.57,320.15L887.6,464.35L903.64,455.7L919.67,474.56L935.7,477.56L951.74,465.54L967.77,302.76L983.8,357.04L999.83,465.77L1015.9,507.12L1031.9,375.65L1047.9,271.8L1064,526.3L1080,466.68" style="fill:none;stroke:#5A9BD4;stroke-width:1.875;stroke-dasharray:2.5,2.5" />
<path d="M1055,693.4L1080,693.4" style="fill:none;stroke:#F15A60;stroke-width:1.875" />
<text x="944.13" y="-686.35" transform="scale(1, -1)"
	style="font-family:Helvetica;font-weight:normal;font-style:normal;font-size:12pt">etcd v3 (Go Tip)</text>
<path d="M1055,678.7L1080,678.7" style="fill:none;stroke:#7AC36A;stroke-width:1.875;stroke-dasharray:7.5,2.5" />
<text x="943.28" y="-671.65" transform="scale(1, -1)"
	style="font-family:Helvetica;font-weight:normal;font-style:normal;font-size:12pt">etcd v3 (Go 1.6)</text>
<path d="M1055,664L1080,664" style="fill:none;stroke:#5A9BD4;stroke-width:1.875;stroke-dasharray:2.5,2.5" />
<text x="943.28" y="-656.95" transform="scale(1, -1)"
	style="font-family:Helvetica;font-weight:normal;font-style:normal;font-size:12pt">etcd v3 (Go 1.5)</text>
</g>
</svg>
