<?xml version="1.0"?>
<!-- Generated by SVGo and Plotinum VG -->
<svg width="12in" height="8in"
	xmlns="http://www.w3.org/2000/svg"
	xmlns:xlink="http://www.w3.org/1999/xlink">
<g transform="scale(1, -1) translate(0, -720)">
<path d="M0,0L1080,0L1080,720L0,720Z" style="fill:#FFFFFF" />
<text x="248.08" y="-705.6" transform="scale(1, -1)"
	style="font-family:Helvetica;font-weight:normal;font-style:normal;font-size:12pt">Write 2M keys, 1000-client (etcd v3 100-conn), 8-byte key, 256-byte value, Memory(MB)</text>
<text x="548.46" y="-4.8486" transform="scale(1, -1)"
	style="font-family:Helvetica;font-weight:normal;font-style:normal;font-size:12pt">Second</text>
<text x="64.31" y="-19.498" transform="scale(1, -1)"
	style="font-family:Helvetica;font-weight:normal;font-style:normal;font-size:10pt">0</text>
<text x="243.43" y="-19.498" transform="scale(1, -1)"
	style="font-family:Helvetica;font-weight:normal;font-style:normal;font-size:10pt">100</text>
<text x="429.5" y="-19.498" transform="scale(1, -1)"
	style="font-family:Helvetica;font-weight:normal;font-style:normal;font-size:10pt">200</text>
<text x="615.56" y="-19.498" transform="scale(1, -1)"
	style="font-family:Helvetica;font-weight:normal;font-style:normal;font-size:10pt">300</text>
<text x="801.63" y="-19.498" transform="scale(1, -1)"
	style="font-family:Helvetica;font-weight:normal;font-style:normal;font-size:10pt">400</text>
<text x="987.7" y="-19.498" transform="scale(1, -1)"
	style="font-family:Helvetica;font-weight:normal;font-style:normal;font-size:10pt">500</text>
<path d="M67.786,31.498L67.786,41.498" style="fill:none;stroke:#000000;stroke-width:0.625" />
<path d="M253.85,31.498L253.85,41.498" style="fill:none;stroke:#000000;stroke-width:0.625" />
<path d="M439.92,31.498L439.92,41.498" style="fill:none;stroke:#000000;stroke-width:0.625" />
<path d="M625.99,31.498L625.99,41.498" style="fill:none;stroke:#000000;stroke-width:0.625" />
<path d="M812.06,31.498L812.06,41.498" style="fill:none;stroke:#000000;stroke-width:0.625" />
<path d="M998.13,31.498L998.13,41.498" style="fill:none;stroke:#000000;stroke-width:0.625" />
<path d="M160.82,36.498L160.82,41.498" style="fill:none;stroke:#000000;stroke-width:0.625" />
<path d="M346.89,36.498L346.89,41.498" style="fill:none;stroke:#000000;stroke-width:0.625" />
<path d="M532.96,36.498L532.96,41.498" style="fill:none;stroke:#000000;stroke-width:0.625" />
<path d="M719.03,36.498L719.03,41.498" style="fill:none;stroke:#000000;stroke-width:0.625" />
<path d="M905.1,36.498L905.1,41.498" style="fill:none;stroke:#000000;stroke-width:0.625" />
<path d="M67.786,41.498L1080,41.498" style="fill:none;stroke:#000000;stroke-width:0.625" />
<g transform="rotate(90)">
<text x="331.08" y="14.399" transform="scale(1, -1)"
	style="font-family:Helvetica;font-weight:normal;font-style:normal;font-size:12pt">Memory(MB)</text>
</g>
<text x="19.248" y="-231.63" transform="scale(1, -1)"
	style="font-family:Helvetica;font-weight:normal;font-style:normal;font-size:10pt">1000</text>
<text x="19.248" y="-422.33" transform="scale(1, -1)"
	style="font-family:Helvetica;font-weight:normal;font-style:normal;font-size:10pt">2000</text>
<text x="19.248" y="-613.03" transform="scale(1, -1)"
	style="font-family:Helvetica;font-weight:normal;font-style:normal;font-size:10pt">3000</text>
<path d="M50.529,237.51L60.529,237.51" style="fill:none;stroke:#000000;stroke-width:0.625" />
<path d="M50.529,428.21L60.529,428.21" style="fill:none;stroke:#000000;stroke-width:0.625" />
<path d="M50.529,618.91L60.529,618.91" style="fill:none;stroke:#000000;stroke-width:0.625" />
<path d="M55.529,142.16L60.529,142.16" style="fill:none;stroke:#000000;stroke-width:0.625" />
<path d="M55.529,332.86L60.529,332.86" style="fill:none;stroke:#000000;stroke-width:0.625" />
<path d="M55.529,523.56L60.529,523.56" style="fill:none;stroke:#000000;stroke-width:0.625" />
<path d="M60.529,48.06L60.529,700.75" style="fill:none;stroke:#000000;stroke-width:0.625" />
<path d="M67.786,75.937L69.646,89.587L71.507,104.3L73.368,124.49L75.228,146.04L77.089,183.55L78.95,203.08L80.81,212.54L82.671,228.75L84.532,259.42L86.393,289.8L88.253,297.36L90.114,304.78L91.975,304.78L93.835,307.52L95.696,352.05L97.557,365.76L99.417,372.2L101.28,372.28L103.14,372.28L105,385.5L106.86,388.25L108.72,388.25L110.58,389.13L112.44,394.73L114.3,400.59L116.16,400.59L118.02,407.9L119.88,407.9L121.75,415.58L123.61,415.95L125.47,429.01L127.33,437.97L129.19,438.14L131.05,438.15L132.91,438.15L134.77,436.33L136.63,436.33L138.49,436.33L140.35,436.33L142.21,436.33L144.07,436.33L145.93,436.33L147.8,436.33L149.66,436.35L151.52,436.35L153.38,436.36L155.24,436.38L157.1,436.4L158.96,436.38L160.82,436.4L162.68,436.41L164.54,436.39L166.4,436.81L168.26,436.96L170.12,437.21L171.98,437.35L173.84,437.33L175.71,437.37L177.57,437.33L179.43,438.28L181.29,438.59L183.15,445.49L185.01,449.62L186.87,452.05L188.73,452.34L190.59,455.8L192.45,456.07L194.31,460.36L196.17,465.03L198.03,465.19L199.89,466.23L201.76,466.25L203.62,466.81L205.48,465.89L207.34,465.74L209.2,465.74L211.06,465.74L212.92,465.74L214.78,466.83L216.64,476.98L218.5,476.9L220.36,476.94L222.22,477.44L224.08,487.12L225.94,494.35L227.8,503.33L229.67,510.75L231.53,516.89L233.39,516.69L235.25,518.15L237.11,517.55L238.97,514.21L240.83,512.43L242.69,512.51L244.55,512.51L246.41,512.51L248.27,512.51L250.13,512.51L251.99,512.51L253.85,512.51L255.72,512.51L257.58,512.52L259.44,512.52L261.3,512.52L263.16,512.52L265.02,512.52L266.88,512.47L268.74,510.56L270.6,508.71L272.46,508.73L274.32,508.73L276.18,508.74L278.04,531.84L279.9,531.85L281.76,540.76L283.63,540.76L285.49,540.91L287.35,546.64L289.21,548.94L291.07,561.27L292.93,564.98L294.79,515.19L296.65,515.36L298.51,515.76L300.37,516.17L302.23,516.17L304.09,516.17L305.95,516.17L307.81,515.78L309.68,515.78L311.54,515.98L313.4,516.1L315.26,515.89L317.12,517.5L318.98,520.77" style="fill:none;stroke:#F15A60;stroke-width:1.875" />
<path d="M67.786,50.271L69.646,60.545L71.507,63.152L73.368,65.485L75.228,68.006L77.089,70.931L78.95,73.271L80.81,76.618L82.671,78.326L84.532,80.723L86.393,83.855L88.253,86.111L90.114,89.087L91.975,91.668L93.835,93.39L95.696,96.279L97.557,99.08L99.417,101.37L101.28,103.29L103.14,106.12L105,109.74L106.86,111.91L108.72,114.39L110.58,116.07L112.44,118.79L114.3,121.67L116.16,125.09L118.02,127.04L119.88,128.51L121.75,131.53L123.61,134.15L125.47,136.42L127.33,138.83L129.19,142.06L131.05,143.23L132.91,146.16L134.77,148.73L136.63,151.23L138.49,153.29L140.35,155.68L142.21,157.57L144.07,159.79L145.93,162.84L147.8,165.82L149.66,169.01L151.52,170.8L153.38,173.04L155.24,174.72L157.1,178.53L158.96,180.68L160.82,183.19L162.68,185.36L164.54,187.02L166.4,189.77L168.26,192.06" style="fill:none;stroke:#7AC36A;stroke-width:1.875;stroke-dasharray:7.5,2.5" />
<path d="M67.786,48.06L69.646,50.576L71.507,51.51L73.368,52.469L75.228,53.12L77.089,55.974L78.95,56.579L80.81,56.678L82.671,56.728L84.532,56.905L86.393,61.476L88.253,61.943L90.114,62.901L91.975,63.068L93.835,63.412L95.696,70.916L97.557,71.951L99.417,72.169L101.28,72.55L103.14,72.567L105,74.079L106.86,77.098L108.72,79.408L110.58,80.006L112.44,81.122L114.3,81.616L116.16,82.077L118.02,86.423L119.88,97.232L121.75,97.232L123.61,97.629L125.47,97.736L127.33,102.05L129.19,105.49L131.05,105.49L132.91,105.71L134.77,105.91L136.63,106.03L138.49,107.41L140.35,109.15L142.21,109.17L144.07,109.17L145.93,109.19L147.8,109.19L149.66,109.83L151.52,115.61L153.38,115.82L155.24,115.9L157.1,115.9L158.96,115.9L160.82,116.08L162.68,116.76L164.54,118.65L166.4,121.43L168.26,121.43L170.12,126.39L171.98,126.41L173.84,131.91L175.71,138.78L177.57,139.19L179.43,139.55L181.29,145.06L183.15,151.83L185.01,157.44L186.87,172.59L188.73,172.59L190.59,172.59L192.45,172.61L194.31,173.74L196.17,174.36L198.03,174.43L199.89,174.45L201.76,174.58L203.62,174.58L205.48,175.13L207.34,178.33L209.2,178.37L211.06,178.37L212.92,178.37L214.78,178.38L216.64,178.38L218.5,178.4L220.36,178.4L222.22,178.41L224.08,178.41L225.94,178.51L227.8,178.54L229.67,178.65L231.53,180.67L233.39,180.68L235.25,180.68L237.11,180.72L238.97,180.72L240.83,180.75L242.69,193.54L244.55,193.55L246.41,193.55L248.27,193.69L250.13,193.69L251.99,193.69L253.85,193.96L255.72,193.96L257.58,194.24L259.44,194.24L261.3,194.5L263.16,194.5L265.02,194.5L266.88,194.5L268.74,194.53L270.6,195.06L272.46,195.08L274.32,195.11L276.18,195.11L278.04,195.11L279.9,195.11L281.76,195.11L283.63,195.14L285.49,200.52L287.35,200.58L289.21,216.26L291.07,223.87L292.93,223.87L294.79,223.91L296.65,223.91L298.51,227.05L300.37,242.29L302.23,245.42L304.09,257.95L305.95,264.37L307.81,270.01L309.68,271.45L311.54,271.46L313.4,271.46L315.26,272.81L317.12,272.81L318.98,283.23L320.84,283.23L322.7,283.23L324.56,283.23L326.42,283.23L328.28,283.23L330.14,283.23L332,283.23L333.86,283.23L335.72,283.26L337.59,289.57L339.45,289.57L341.31,289.57L343.17,289.57L345.03,289.57L346.89,289.57L348.75,289.58L350.61,289.58L352.47,289.58L354.33,289.58L356.19,289.58L358.05,289.58L359.91,289.63L361.77,290.28L363.64,290.3L365.5,290.3L367.36,290.3L369.22,290.34L371.08,290.34L372.94,290.34L374.8,290.34L376.66,290.34L378.52,302.5L380.38,312.88L382.24,312.88L384.1,312.88L385.96,312.9L387.82,312.9L389.68,312.9L391.55,316.18L393.41,326.37L395.27,326.37L397.13,326.37L398.99,327.16L400.85,327.18L402.71,327.2L404.57,331.33L406.43,331.35L408.29,331.35L410.15,332.62L412.01,333.24L413.87,333.24L415.73,333.24L417.6,333.24L419.46,333.24L421.32,333.26L423.18,338.17L425.04,345.34L426.9,345.34L428.76,345.34L430.62,345.75L432.48,345.75L434.34,345.75L436.2,345.75L438.06,345.75L439.92,345.77L441.78,345.8L443.64,346.11L445.51,346.73L447.37,346.73L449.23,346.74L451.09,346.74L452.95,346.74L454.81,346.74L456.67,346.76L458.53,346.76L460.39,346.76L462.25,349.47L464.11,349.49L465.97,349.49L467.83,349.49L469.69,349.49L471.55,349.49L473.42,349.49L475.28,349.49L477.14,349.49L479,349.49L480.86,349.54L482.72,349.54L484.58,349.54L486.44,349.54L488.3,357.39L490.16,357.39L492.02,357.4L493.88,357.4L495.74,357.91L497.6,366.05L499.47,366.05L501.33,366.07L503.19,366.07L505.05,366.07L506.91,366.07L508.77,366.07L510.63,366.07L512.49,366.11L514.35,366.11L516.21,375L518.07,375.02L519.93,375.02L521.79,375.02L523.65,375.02L525.51,383.5L527.38,383.5L529.24,383.53L531.1,384.06L532.96,384.35L534.82,384.35L536.68,385.7L538.54,386.22L540.4,386.22L542.26,386.24L544.12,386.6L545.98,395.35L547.84,395.35L549.7,395.35L551.56,395.37L553.43,396.22L555.29,396.22L557.15,397.09L559.01,397.09L560.87,397.61L562.73,397.61L564.59,397.61L566.45,397.64L568.31,397.64L570.17,397.66L572.03,397.7L573.89,398.09L575.75,398.22L577.61,398.23L579.47,398.62L581.34,398.62L583.2,398.62L585.06,398.62L586.92,398.62L588.78,399.14L590.64,399.14L592.5,399.14L594.36,399.14L596.22,408.69L598.08,408.69L599.94,418.21L601.8,418.21L603.66,418.21L605.52,418.21L607.39,418.22L609.25,418.92L611.11,428.43L612.97,428.46L614.83,429.12L616.69,429.13L618.55,429.65L620.41,429.65L622.27,430.3L624.13,430.3L625.99,430.3L627.85,430.33L629.71,430.33L631.57,430.59L633.43,450.55L635.3,461.88L637.16,472.06L639.02,472.09L640.88,472.09L642.74,484.09L644.6,484.09L646.46,494.14L648.32,494.16L650.18,495.08L652.04,495.08L653.9,495.08L655.76,504.62L657.62,510.63L659.48,511.16L661.35,532.53L663.21,543.1L665.07,545.31L666.93,545.31L668.79,545.33L670.65,545.33L672.51,545.72L674.37,545.72L676.23,546.51L678.09,546.51L679.95,547.03L681.81,551.99L683.67,551.99L685.53,556.95L687.39,559.17L689.26,559.31L691.12,559.31L692.98,559.31L694.84,559.31L696.7,559.31L698.56,559.31L700.42,559.83L702.28,559.83L704.14,559.83L706,559.83L707.86,560.32L709.72,568.41L711.58,569.69L713.44,571.35L715.31,571.35L717.17,571.35L719.03,571.35L720.89,571.35L722.75,571.35L724.61,571.88L726.47,571.88L728.33,571.88L730.19,571.88L732.05,571.88L733.91,593.41L735.77,593.41L737.63,593.41L739.49,593.41L741.35,593.41L743.22,593.41L745.08,593.93L746.94,593.93L748.8,595.85L750.66,595.91L752.52,606.67L754.38,607.71L756.24,607.71L758.1,607.71L759.96,607.71L761.82,607.71L763.68,607.84L765.54,607.84L767.4,607.84L769.27,608.36L771.13,608.36L772.99,619.9L774.85,620.16L776.71,620.94L778.57,624.12L780.43,624.09L782.29,625.19L784.15,625.19L786.01,625.19L787.87,625.19L789.73,625.19L791.59,625.19L793.45,625.23L795.31,634.48L797.18,634.48L799.04,634.48L800.9,634.53L802.76,634.53L804.62,634.53L806.48,634.58L808.34,635.8L810.2,635.8L812.06,635.8L813.92,635.85L815.78,643.74L817.64,643.74L819.5,643.74L821.36,648.41L823.23,654.09L825.09,654.17L826.95,654.17L828.81,654.17L830.67,654.17L832.53,654.17L834.39,654.2L836.25,654.2L838.11,654.2L839.97,654.2L841.83,654.2L843.69,654.23L845.55,654.23L847.41,654.23L849.27,654.24L851.14,654.24L853,666.89L854.86,666.9L856.72,666.9L858.58,667.61L860.44,667.61L862.3,667.61L864.16,667.63L866.02,667.63L867.88,667.63L869.74,668.42L871.6,668.82L873.46,669.22L875.32,669.22L877.18,669.22L879.05,669.24L880.91,669.24L882.77,669.24L884.63,669.24L886.49,669.25L888.35,669.25L890.21,676.03L892.07,676.03L893.93,676.04L895.79,676.04L897.65,676.04L899.51,676.04L901.37,676.04L903.23,676.04L905.1,677.87L906.96,677.89L908.82,677.89L910.68,677.89L912.54,677.91L914.4,677.91L916.26,677.91L918.12,677.91L919.98,677.92L921.84,677.92L923.7,677.92L925.56,678.74L927.42,678.77L929.28,678.77L931.14,678.77L933.01,678.93L934.87,678.96L936.73,679.36L938.59,679.36L940.45,679.36L942.31,679.37L944.17,699.09L946.03,699.14L947.89,699.14L949.75,699.14L951.61,699.14L953.47,699.15L955.33,699.15L957.19,699.16L959.06,699.16L960.92,699.16L962.78,699.16L964.64,699.16L966.5,699.18L968.36,699.18L970.22,699.18L972.08,700.54L973.94,700.58L975.8,700.58L977.66,700.58L979.52,700.58L981.38,700.59L983.24,700.59L985.1,700.59L986.97,700.59L988.83,700.6L990.69,700.6L992.55,700.6L994.41,700.6L996.27,700.6L998.13,700.62L999.99,700.62L1001.9,700.62L1003.7,700.62L1005.6,700.63L1007.4,700.63L1009.3,700.63L1011.2,700.65L1013,700.65L1014.9,700.65L1016.7,700.65L1018.6,700.67L1020.5,700.67L1022.3,700.67L1024.2,700.67L1026,700.69L1027.9,700.69L1029.8,700.69L1031.6,700.69L1033.5,700.69L1035.3,700.7L1037.2,700.7L1039.1,700.7L1040.9,700.7L1042.8,700.72L1044.6,700.72L1046.5,700.72L1048.4,700.72L1050.2,700.72L1052.1,700.73L1054,700.73L1055.8,700.73L1057.7,700.75L1059.5,700.75L1061.4,700.75L1063.3,700.75L1065.1,700.75L1067,700.75L1068.8,700.75L1070.7,700.75L1072.6,700.75L1074.4,700.75L1076.3,700.75L1078.1,700.75L1080,700.75" style="fill:none;stroke:#5A9BD4;stroke-width:1.875;stroke-dasharray:2.5,2.5" />
<path d="M1055,693.4L1080,693.4" style="fill:none;stroke:#F15A60;stroke-width:1.875" />
<text x="795.68" y="-686.35" transform="scale(1, -1)"
	style="font-family:Helvetica;font-weight:normal;font-style:normal;font-size:12pt">Zookeeper v3.4.8 (Java 8, Snap 100k)</text>
<path d="M1055,678.7L1080,678.7" style="fill:none;stroke:#7AC36A;stroke-width:1.875;stroke-dasharray:7.5,2.5" />
<text x="944.13" y="-671.65" transform="scale(1, -1)"
	style="font-family:Helvetica;font-weight:normal;font-style:normal;font-size:12pt">etcd v3 (Go Tip)</text>
<path d="M1055,664L1080,664" style="fill:none;stroke:#5A9BD4;stroke-width:1.875;stroke-dasharray:2.5,2.5" />
<text x="943.28" y="-656.95" transform="scale(1, -1)"
	style="font-family:Helvetica;font-weight:normal;font-style:normal;font-size:12pt">etcd v2 (Go 1.4)</text>
</g>
</svg>
