<?xml version="1.0"?>
<!-- Generated by SVGo and Plotinum VG -->
<svg width="12in" height="8in"
	xmlns="http://www.w3.org/2000/svg"
	xmlns:xlink="http://www.w3.org/1999/xlink">
<g transform="scale(1, -1) translate(0, -720)">
<path d="M0,0L1080,0L1080,720L0,720Z" style="fill:#FFFFFF" />
<text x="251.1" y="-705.6" transform="scale(1, -1)"
	style="font-family:Helvetica;font-weight:normal;font-style:normal;font-size:12pt">Write 2M keys, 1000-client, 100-conn, 8-byte key, 256-byte value (etcd v3), Throughput</text>
<text x="552.11" y="-4.8486" transform="scale(1, -1)"
	style="font-family:Helvetica;font-weight:normal;font-style:normal;font-size:12pt">Second</text>
<text x="71.609" y="-19.498" transform="scale(1, -1)"
	style="font-family:Helvetica;font-weight:normal;font-style:normal;font-size:10pt">0</text>
<text x="355.25" y="-19.498" transform="scale(1, -1)"
	style="font-family:Helvetica;font-weight:normal;font-style:normal;font-size:10pt">20</text>
<text x="642.37" y="-19.498" transform="scale(1, -1)"
	style="font-family:Helvetica;font-weight:normal;font-style:normal;font-size:10pt">40</text>
<text x="929.49" y="-19.498" transform="scale(1, -1)"
	style="font-family:Helvetica;font-weight:normal;font-style:normal;font-size:10pt">60</text>
<path d="M75.085,31.498L75.085,41.498" style="fill:none;stroke:#000000;stroke-width:0.625" />
<path d="M362.2,31.498L362.2,41.498" style="fill:none;stroke:#000000;stroke-width:0.625" />
<path d="M649.32,31.498L649.32,41.498" style="fill:none;stroke:#000000;stroke-width:0.625" />
<path d="M936.44,31.498L936.44,41.498" style="fill:none;stroke:#000000;stroke-width:0.625" />
<path d="M218.64,36.498L218.64,41.498" style="fill:none;stroke:#000000;stroke-width:0.625" />
<path d="M505.76,36.498L505.76,41.498" style="fill:none;stroke:#000000;stroke-width:0.625" />
<path d="M792.88,36.498L792.88,41.498" style="fill:none;stroke:#000000;stroke-width:0.625" />
<path d="M1080,36.498L1080,41.498" style="fill:none;stroke:#000000;stroke-width:0.625" />
<path d="M75.085,41.498L1080,41.498" style="fill:none;stroke:#000000;stroke-width:0.625" />
<g transform="rotate(90)">
<text x="336.05" y="14.399" transform="scale(1, -1)"
	style="font-family:Helvetica;font-weight:normal;font-style:normal;font-size:12pt">Throughput</text>
</g>
<text x="19.248" y="-155.6" transform="scale(1, -1)"
	style="font-family:Helvetica;font-weight:normal;font-style:normal;font-size:10pt">1e+04</text>
<text x="19.248" y="-329.06" transform="scale(1, -1)"
	style="font-family:Helvetica;font-weight:normal;font-style:normal;font-size:10pt">2e+04</text>
<text x="19.248" y="-502.52" transform="scale(1, -1)"
	style="font-family:Helvetica;font-weight:normal;font-style:normal;font-size:10pt">3e+04</text>
<text x="19.248" y="-675.99" transform="scale(1, -1)"
	style="font-family:Helvetica;font-weight:normal;font-style:normal;font-size:10pt">4e+04</text>
<path d="M57.828,161.47L67.828,161.47" style="fill:none;stroke:#000000;stroke-width:0.625" />
<path d="M57.828,334.93L67.828,334.93" style="fill:none;stroke:#000000;stroke-width:0.625" />
<path d="M57.828,508.4L67.828,508.4" style="fill:none;stroke:#000000;stroke-width:0.625" />
<path d="M57.828,681.86L67.828,681.86" style="fill:none;stroke:#000000;stroke-width:0.625" />
<path d="M62.828,74.739L67.828,74.739" style="fill:none;stroke:#000000;stroke-width:0.625" />
<path d="M62.828,248.2L67.828,248.2" style="fill:none;stroke:#000000;stroke-width:0.625" />
<path d="M62.828,421.67L67.828,421.67" style="fill:none;stroke:#000000;stroke-width:0.625" />
<path d="M62.828,595.13L67.828,595.13" style="fill:none;stroke:#000000;stroke-width:0.625" />
<path d="M67.828,48.06L67.828,700.75" style="fill:none;stroke:#000000;stroke-width:0.625" />
<path d="M75.085,62.77L89.441,640.89L103.8,574.28L118.15,550.9L132.51,531.17L146.87,517.16L161.22,506.84L175.58,464.91L189.93,503.4L204.29,490.97L218.64,486.47L233,476.24L247.36,490.36L261.71,471.4L276.07,466.44L290.42,494.69L304.78,498.06L319.14,507.65L333.49,500.96L347.85,501.2L362.2,490.31L376.56,489.46L390.92,491.75L405.27,489.51L419.63,480.52L433.98,516.05L448.34,482.34L462.7,492.82L477.05,459.83L491.41,481.81L505.76,486.21L520.12,462.52L534.47,456.45L548.83,461.88L563.19,464.88L577.54,446.66L591.9,434.92L606.25,501.13L620.61,437.73L634.97,473.43L649.32,445.59L663.68,484.37L678.03,473.51L692.39,453.32L706.75,502.47L721.1,467.37L735.46,477.3L749.81,469.79L764.17,450.76L778.53,466.39L792.88,459.07L807.24,462.05L821.59,456.05L835.95,448L850.31,472.87L864.66,483.68L879.02,442.33L893.37,494.42L907.73,509.4L922.08,442.53L936.44,466.11L950.8,510.27L965.15,432.56L979.51,436.29L993.86,496.74L1008.2,398.25L1022.6,492.49L1036.9,413.2L1051.3,472.77L1065.6,477.82L1080,439.05" style="fill:none;stroke:#F15A60;stroke-width:1.875" />
<path d="M75.085,48.06L89.441,700.75L103.8,624.22L118.15,672.34L132.51,653.66L146.87,625.64L161.22,602.61L175.58,625.99L189.93,596.62L204.29,590.67L218.64,572.23L233,620.53L247.36,561.11L261.71,601.22L276.07,627.5L290.42,591.75L304.78,618.72L319.14,530.53L333.49,539.08L347.85,516.55L362.2,537.92L376.56,549.02L390.92,587.55L405.27,496.6L419.63,584.72L433.98,546.94L448.34,550.5L462.7,627.72L477.05,583.61L491.41,643.99L505.76,573.15L520.12,617.3L534.47,584.24L548.83,580.42L563.19,643.23L577.54,609.16L591.9,586.13L606.25,593.52L620.61,628.4L634.97,601.69L649.32,590.93L663.68,535.96L678.03,544.37L692.39,580.8L706.75,601.31L721.1,622.68L735.46,545.28L749.81,551.54L764.17,531.56L778.53,565.59L792.88,571.7L807.24,627.93L821.59,593.86L835.95,553.27L850.31,650.79L864.66,616.41L879.02,606.93L893.37,560.65" style="fill:none;stroke:#7AC36A;stroke-width:1.875;stroke-dasharray:7.5,2.5" />
<path d="M1055,693.4L1080,693.4" style="fill:none;stroke:#F15A60;stroke-width:1.875" />
<text x="1002.5" y="-686.35" transform="scale(1, -1)"
	style="font-family:Helvetica;font-weight:normal;font-style:normal;font-size:12pt">etcd v3</text>
<path d="M1055,678.7L1080,678.7" style="fill:none;stroke:#7AC36A;stroke-width:1.875;stroke-dasharray:7.5,2.5" />
<text x="881.61" y="-671.65" transform="scale(1, -1)"
	style="font-family:Helvetica;font-weight:normal;font-style:normal;font-size:12pt">etcd v3 (with mvcc patch)</text>
</g>
</svg>
